<svg width="135" height="135" viewBox="0 0 135 135" fill="none" xmlns="http://www.w3.org/2000/svg">
<g clip-path="url(#clip0_23017_930)">
<path d="M59.0639 46.4062C47.4134 46.4062 37.9688 55.8508 37.9688 67.5014C37.9688 79.1519 47.4134 88.5963 59.0639 88.5963C65.0722 88.5963 70.4852 86.0929 74.3351 82.0547C76.7467 79.5251 80.7524 79.4294 83.2819 81.8411C85.8119 84.2527 85.9072 88.2579 83.4956 90.7875C77.3564 97.227 68.675 101.253 59.0639 101.253C40.4236 101.253 25.3125 86.1418 25.3125 67.5014C25.3125 48.8611 40.4236 33.75 59.0639 33.75C68.6344 33.75 77.2835 37.7417 83.418 44.1339C85.8381 46.6555 85.7554 50.6615 83.234 53.0813C80.7124 55.5013 76.7065 55.4189 74.2865 52.8973C70.4396 48.8889 65.0471 46.4062 59.0639 46.4062Z" fill="#FBFAF7"/>
<path d="M55.5726 0.862025C57.5429 -0.287342 59.9794 -0.287342 61.9497 0.862025L101.727 24.0652C104.746 25.8262 105.765 29.7009 104.004 32.7198C102.243 35.7386 98.3686 36.7583 95.3497 34.9973L58.7612 13.6542L12.6562 40.5488V94.4511L58.7612 121.346L95.3497 100.003C98.3686 98.242 102.243 99.2613 104.004 102.28C105.765 105.299 104.746 109.174 101.727 110.935L61.9497 134.138C59.9794 135.288 57.5429 135.288 55.5726 134.138L3.13957 103.552C1.19545 102.418 0 100.337 0 98.0859V36.9141C0 34.6634 1.19545 32.582 3.13957 31.448L55.5726 0.862025Z" fill="#FBFAF7"/>
<path d="M102.768 44.2969C105.097 44.2969 106.987 46.1857 106.987 48.5156V86.4844C106.987 88.814 105.097 90.7031 102.768 90.7031C100.438 90.7031 98.5491 88.814 98.5491 86.4844V48.5156C98.5491 46.1857 100.438 44.2969 102.768 44.2969Z" fill="#FBFAF7"/>
<path d="M120.826 44.2969C123.155 44.2969 125.045 46.1857 125.045 48.5156V86.4844C125.045 88.814 123.155 90.7031 120.826 90.7031C118.496 90.7031 116.607 88.814 116.607 86.4844V48.5156C116.607 46.1857 118.496 44.2969 120.826 44.2969Z" fill="#FBFAF7"/>
<path d="M88.5938 58.4713C88.5938 56.1414 90.4829 54.2526 92.8125 54.2526H130.781C133.111 54.2526 135 56.1414 135 58.4713C135 60.8012 133.111 62.6901 130.781 62.6901H92.8125C90.4829 62.6901 88.5938 60.8012 88.5938 58.4713Z" fill="#FBFAF7"/>
<path d="M88.5938 76.5287C88.5938 74.1988 90.4829 72.3099 92.8125 72.3099H130.781C133.111 72.3099 135 74.1988 135 76.5287C135 78.8586 133.111 80.7474 130.781 80.7474H92.8125C90.4829 80.7474 88.5938 78.8586 88.5938 76.5287Z" fill="#FBFAF7"/>
</g>
<defs>
<clipPath id="clip0_23017_930">
<rect width="135" height="135" fill="white"/>
</clipPath>
</defs>
</svg>
