<svg width="135" height="135" viewBox="0 0 135 135" fill="none" xmlns="http://www.w3.org/2000/svg">
<path d="M25.3125 12.6562C24.1475 12.6562 23.2031 13.6007 23.2031 14.7656V95.3463C23.2031 96.0997 23.6055 96.7967 24.2586 97.173L65.254 120.82C65.892 121.188 66.6757 121.196 67.3216 120.843L110.701 97.0717C111.377 96.7013 111.797 95.9926 111.797 95.2222V14.7656C111.797 13.6007 110.853 12.6562 109.688 12.6562H25.3125ZM10.5469 14.7656C10.5469 6.6108 17.1577 0 25.3125 0H109.688C117.842 0 124.453 6.61081 124.453 14.7656V95.2222C124.453 100.615 121.513 105.579 116.783 108.171L73.4036 131.941C68.8823 134.419 63.3963 134.359 58.9304 131.783L17.9349 108.137C13.3635 105.5 10.5469 100.624 10.5469 95.3463V14.7656ZM42.1875 35.8594C42.1875 32.3645 45.0207 29.5312 48.5156 29.5312H87.4581C90.9529 29.5312 93.7862 32.3645 93.7862 35.8594C93.7862 39.3543 90.9529 42.1875 87.4581 42.1875H54.8438V56.6286H87.4581C90.9529 56.6286 93.7862 59.4618 93.7862 62.9567V87.2961C93.7862 89.6923 92.432 91.8835 90.288 92.9559L70.8168 102.691C69.0353 103.582 66.9383 103.582 65.1567 102.691L45.6856 92.9559C43.5417 91.8835 42.1875 89.6923 42.1875 87.2961V82.4279C42.1875 78.933 45.0207 76.0998 48.5156 76.0998C52.0105 76.0998 54.8438 78.933 54.8438 82.4279V83.3847L67.9868 89.9564L81.1299 83.3847V69.2849H48.5156C45.0207 69.2849 42.1875 66.4516 42.1875 62.9567V35.8594Z" fill="#FBFAF7"/>
</svg>
