<svg width="135" height="135" viewBox="0 0 135 135" fill="none" xmlns="http://www.w3.org/2000/svg">
<g clip-path="url(#clip0_23017_944)">
<path d="M0 14.7656C0 6.61079 6.6108 0 14.7656 0H120.234C128.389 0 135 6.6108 135 14.7656V31.6406C135 35.1355 132.167 37.9688 128.672 37.9688C125.177 37.9688 122.344 35.1355 122.344 31.6406V14.7656C122.344 13.6007 121.4 12.6562 120.234 12.6562H14.7656C13.6007 12.6562 12.6562 13.6007 12.6562 14.7656V120.234C12.6562 121.4 13.6007 122.344 14.7656 122.344H128.672C132.167 122.344 135 125.177 135 128.672C135 132.167 132.167 135 128.672 135H14.7656C6.61079 135 0 128.389 0 120.234V14.7656ZM69.6094 48.5156C73.1043 48.5156 75.9375 51.3489 75.9375 54.8438V88.5938C75.9375 97.0717 73.6087 103.43 68.809 107.43C64.2282 111.247 58.673 111.797 54.8438 111.797C51.3489 111.797 48.5156 108.964 48.5156 105.469C48.5156 101.974 51.3489 99.1406 54.8438 99.1406C57.7646 99.1406 59.5921 98.6361 60.7066 97.7071C61.6022 96.9604 63.2812 94.8814 63.2812 88.5938V54.8438C63.2812 51.3489 66.1144 48.5156 69.6094 48.5156ZM95.1387 55.5197C98.6715 51.3138 104.209 48.5156 111.797 48.5156C118.841 48.5156 124.156 50.926 127.739 54.7156C130.139 57.2554 130.026 61.2606 127.486 63.6614C124.947 66.0621 120.941 65.9493 118.541 63.4094C117.614 62.4289 115.766 61.1719 111.797 61.1719C107.572 61.1719 105.727 62.5924 104.83 63.66C103.726 64.9742 103.359 66.6225 103.359 67.5C103.359 68.3775 103.726 70.0258 104.83 71.34C105.727 72.4076 107.572 73.8281 111.797 73.8281C112.436 73.8281 113.052 73.9227 113.633 74.0987C119.228 74.8951 123.457 77.3931 126.346 80.8322C129.671 84.791 130.781 89.4713 130.781 92.8125C130.781 96.1537 129.671 100.834 126.346 104.793C122.813 108.999 117.275 111.797 109.688 111.797C102.643 111.797 97.3283 109.386 93.7457 105.597C91.3452 103.057 91.4583 99.052 93.998 96.6507C96.5377 94.2503 100.543 94.3633 102.943 96.903C103.871 97.8834 105.718 99.1406 109.688 99.1406C113.912 99.1406 115.757 97.7197 116.654 96.6524C117.759 95.3378 118.125 93.69 118.125 92.8125C118.125 91.935 117.759 90.2872 116.654 88.9726C115.757 87.9053 113.912 86.4844 109.688 86.4844C109.049 86.4844 108.432 86.3899 107.852 86.2135C102.257 85.417 98.0277 82.9194 95.1387 79.4803C91.8135 75.5211 90.7031 70.8412 90.7031 67.5C90.7031 64.1588 91.8135 59.4789 95.1387 55.5197Z" fill="#FBFAF7"/>
</g>
<defs>
<clipPath id="clip0_23017_944">
<rect width="135" height="135" fill="white"/>
</clipPath>
</defs>
</svg>
