<svg width="741" height="478" viewBox="0 0 741 478" fill="none" xmlns="http://www.w3.org/2000/svg">
<path opacity="0.3" d="M654.009 359.471H571.081C579.957 350.437 585.616 336.755 585.616 321.441V310.188C585.616 277.588 607.013 251.161 633.408 251.161C660.466 251.161 682.4 224.07 682.4 190.652C682.4 157.234 660.466 130.143 633.408 130.143H625.382C598.987 130.143 577.59 103.716 577.59 71.1167V71.1164C577.59 43.9134 559.734 21.8611 537.709 21.8611H226.095C201.58 21.8611 181.707 46.4063 181.707 76.6843C181.707 97.3831 190.996 115.4 204.705 124.73H149.966C127.137 124.73 108.631 145.883 108.631 171.976C108.631 203.246 86.4538 228.595 59.0967 228.595H50.778C22.7341 228.595 0 254.58 0 286.635C0 318.689 22.7343 344.675 50.778 344.675C78.1352 344.675 100.312 370.024 100.312 401.293V412.087C100.312 438.181 118.818 459.333 141.647 459.333H333.986C335.437 459.489 336.907 459.571 338.394 459.571H654.009C678.966 459.571 699.197 437.163 699.197 409.521C699.197 381.879 678.966 359.471 654.009 359.471Z" fill="#FBFAF7"/>
<path d="M209.494 313.54C208.174 313.536 207.1 315.144 207.095 317.13C207.091 319.116 208.157 320.729 209.477 320.732C210.797 320.736 211.87 319.128 211.875 317.142C211.88 315.156 210.813 313.543 209.494 313.54ZM209.491 314.556C210.2 314.558 210.773 314.932 210.772 315.392C210.771 315.852 210.196 316.223 209.487 316.221C208.779 316.22 208.206 315.845 208.207 315.385C208.208 314.925 208.783 314.554 209.491 314.556ZM209.48 319.383C208.481 319.38 207.672 318.803 207.674 318.094C207.676 317.384 208.487 316.812 209.486 316.814C210.485 316.817 211.294 317.394 211.292 318.103C211.291 318.813 210.479 319.386 209.48 319.383Z" fill="#466EB6"/>
<path d="M204.068 321.481C203.567 322.624 203.304 323.867 203.301 325.125L203.24 351.456C203.236 353.047 204.466 354.339 205.987 354.343L220.244 354.38C221.765 354.384 223.001 353.098 223.005 351.508L223.066 325.177C223.069 323.918 222.812 322.674 222.316 321.528L204.068 321.481Z" fill="#7F1CA0"/>
<path d="M204.068 321.481C203.567 322.624 203.304 323.867 203.301 325.125L203.24 351.456C203.236 353.047 204.466 354.339 205.987 354.343L220.244 354.38C221.765 354.384 223.001 353.098 223.005 351.508L223.066 325.177C223.069 323.918 222.812 322.674 222.316 321.528L204.068 321.481Z" fill="#7F1CA0"/>
<path d="M223.067 325.176L223.006 351.509C223.002 353.098 221.765 354.385 220.245 354.381L205.989 354.344C204.466 354.34 203.237 353.046 203.241 351.458L203.302 325.125C203.305 323.868 203.567 322.625 204.069 321.482L222.314 321.529C222.811 322.675 223.07 323.919 223.067 325.176Z" fill="#F47458"/>
<path d="M207.02 351.466L207.081 325.135C207.084 323.876 207.347 322.634 207.848 321.491L204.068 321.481C203.566 322.624 203.304 323.867 203.301 325.125L203.24 351.456C203.236 353.047 204.466 354.339 205.987 354.343L209.767 354.353C208.246 354.349 207.016 353.056 207.02 351.466Z" fill="#F48C7F"/>
<path d="M223.067 325.176L223.006 351.509C223.003 353.098 221.765 354.385 220.245 354.381L214.416 354.366C215.952 354.37 217.203 353.082 217.206 351.494L217.268 325.161C217.271 323.904 217.008 322.661 216.508 321.514L222.315 321.529C222.811 322.675 223.07 323.919 223.067 325.176Z" fill="#B75742"/>
<path d="M222.315 321.528L204.067 321.481C204.069 320.639 204.723 319.958 205.528 319.96L220.861 320C221.666 320.002 222.317 320.686 222.315 321.528Z" fill="#13375B"/>
<path d="M203.264 346.274L203.257 349.546L223.022 349.599L223.03 346.326L203.264 346.274Z" fill="#355389"/>
<path d="M186.109 313.004H188.289C187.933 312.746 187.487 312.592 187.001 312.592H132.389C129.531 312.592 127.215 314.76 127.215 317.435V320.511C127.215 323.186 129.531 325.355 132.389 325.355L186.39 325.338L186.109 313.004Z" fill="#86B1F2"/>
<path d="M155.105 312.603C152.372 312.603 150.157 314.677 150.157 317.235V320.712C150.157 323.27 152.372 325.343 155.105 325.343H189.102V324.566H188.962L180.319 323.799L178.572 317.384C178.572 317.384 181.944 313.839 182.164 313.747C182.384 313.655 188.962 313.378 188.962 313.378L189.102 313.377V312.603H155.105Z" fill="#466EB6"/>
<path d="M186.897 318.95C186.897 315.199 188.968 313.381 188.968 313.381H155.801C153.291 313.381 151.256 315.286 151.256 317.635V320.311C151.256 322.661 153.291 324.566 155.801 324.566H188.968C188.968 324.566 186.897 323.674 186.897 318.95Z" fill="#FAE0B2"/>
<path d="M151.256 317.635V320.311C151.256 320.663 151.303 321.004 151.389 321.332C152.508 318.769 154.651 316.302 158.733 315.508C168.261 313.655 188.968 313.381 188.968 313.381H155.801C153.291 313.381 151.256 315.285 151.256 317.635Z" fill="#DAEEF7"/>
<path d="M185.21 338.513H187.677C187.274 338.191 186.769 337.998 186.219 337.998H124.409C121.175 337.998 118.553 340.712 118.553 344.06V347.911C118.553 351.259 121.175 353.973 124.409 353.973L185.528 353.952L185.21 338.513Z" fill="#50BFA5"/>
<path d="M150.119 338.013C147.026 338.013 144.519 340.608 144.519 343.81V348.162C144.519 351.364 147.026 353.959 150.119 353.959H188.597V352.986H188.438L178.656 352.027L176.679 343.996C176.679 343.996 180.495 339.558 180.744 339.444C180.993 339.329 188.438 338.982 188.438 338.982L188.597 338.98V338.012L150.119 338.013Z" fill="#3C8F7C"/>
<path d="M186.102 345.957C186.102 341.262 188.446 338.986 188.446 338.986H150.907C148.066 338.986 145.763 341.37 145.763 344.311V347.661C145.763 350.602 148.066 352.986 150.907 352.986H188.445C188.445 352.986 186.102 351.869 186.102 345.957Z" fill="#FAE0B2"/>
<path d="M145.763 344.311V347.661C145.763 348.101 145.816 348.529 145.913 348.938C147.18 345.731 149.606 342.642 154.225 341.649C165.01 339.33 188.446 338.986 188.446 338.986H150.907C148.066 338.986 145.763 341.37 145.763 344.311Z" fill="#DAEEF7"/>
<path d="M116.516 325.731H114.048C114.452 325.475 114.957 325.322 115.506 325.322H177.341C180.576 325.322 183.199 327.476 183.199 330.132V333.188C183.199 335.844 180.576 337.998 177.341 337.998L116.198 337.981L116.516 325.731Z" fill="#F47458"/>
<path d="M151.621 325.334C154.715 325.334 157.223 327.393 157.223 329.934V333.387C157.223 335.927 154.715 337.987 151.621 337.987H113.127V337.215H113.286L123.072 336.454L125.05 330.081C125.05 330.081 121.232 326.56 120.984 326.469C120.735 326.379 113.286 326.103 113.286 326.103L113.127 326.102V325.333L151.621 325.334Z" fill="#B75742"/>
<path d="M115.624 331.638C115.624 327.912 113.279 326.106 113.279 326.106H150.832C153.674 326.106 155.978 327.998 155.978 330.331V332.989C155.978 335.323 153.674 337.215 150.832 337.215H113.279C113.279 337.215 115.624 336.329 115.624 331.638Z" fill="#FAE0B2"/>
<path d="M155.978 330.331V332.989C155.978 333.338 155.925 333.678 155.828 334.002C154.561 331.458 152.134 329.007 147.513 328.218C136.724 326.378 113.279 326.106 113.279 326.106H150.832C153.674 326.106 155.978 327.998 155.978 330.331Z" fill="#DAEEF7"/>
<path d="M343.489 332.519L337.692 331.359L312.517 471.648L318.314 472.809L343.489 332.519Z" fill="#184655"/>
<path d="M510.638 473.472H517.611L491.625 331.357L485.828 332.517L510.638 473.472Z" fill="#184655"/>
<path d="M382.977 473.472H389.95L363.964 331.357L358.167 332.517L382.977 473.472Z" fill="#184655"/>
<path d="M447.105 473.472L441.444 473.543L466.357 331.995L472.154 333.155L447.105 473.472Z" fill="#184655"/>
<path d="M421.812 139.962C444.768 142.558 474.476 145.297 504.3 198.746C536.896 257.164 519.737 344.425 494.01 368.673C468.283 392.922 384.258 422.862 313.624 378.039C313.624 378.039 270.974 350.876 292.863 305.794C326.546 236.419 321.786 221.952 336.847 194.764C351.908 167.576 373.084 134.451 421.812 139.962Z" fill="#FAE0B2"/>
<path d="M504.3 198.746C483.944 162.265 463.643 149.41 445.506 144.098C452.521 151.766 459.634 161.629 466.753 174.388C499.348 232.805 482.19 320.066 456.463 344.315C433.647 365.818 364.985 391.79 300.472 366.135C307.105 373.887 313.624 378.039 313.624 378.039C384.258 422.862 468.283 392.922 494.01 368.673C519.737 344.425 536.896 257.164 504.3 198.746Z" fill="#F7CC7F"/>
<path d="M103.33 181.367C102.679 186.786 108.023 191.087 112.775 190.748C118.029 190.373 122.486 185.823 123.254 180.37C124.086 174.469 120.728 169.749 115.533 169.316C110.476 168.895 107.242 173.649 108.702 178.445C109.749 181.884 112.721 183.166 114.219 182.217C115.386 181.478 115.315 179.613 113.902 179.284C113.336 179.152 112.752 179.485 112.452 179.944C111.215 179.426 110.038 177.048 110.837 174.48C111.857 171.2 115.783 171.012 118.221 172.542C121.325 174.489 121.813 178.682 120.675 182.023C119.48 185.531 116.218 188.294 112.666 188.56C108.643 188.861 105.102 185.605 104.781 181.372C104.706 180.373 103.446 180.397 103.33 181.367Z" fill="#F48C7F"/>
<path d="M457.047 0.472878C433.288 0.324084 413.957 12.6988 413.871 28.1124C413.827 35.819 418.603 42.8265 426.36 47.926L416.59 70.5912L436.981 53.0519C442.889 55.0796 449.606 56.2461 456.733 56.2908C480.493 56.4396 499.823 44.0649 499.91 28.6513C499.997 13.2377 480.806 0.621671 457.047 0.472878Z" fill="#FAE0B2"/>
<path d="M440.588 31.0388C442.698 39.4955 450.899 44.5437 458.905 42.3139C466.911 40.0844 471.691 31.4214 469.581 22.9645C467.47 14.5079 459.27 9.45986 451.264 11.6894C443.257 13.9192 438.478 22.5822 440.588 31.0388Z" fill="#F7CC7F"/>
<path d="M463.44 27.269C464.568 31.7904 462.013 36.4221 457.732 37.6142C453.452 38.8064 449.067 36.1072 447.939 31.5861L463.44 27.269Z" fill="#EFEFEF"/>
<path d="M211.801 219.315L277.399 218.795C278.897 218.783 280.102 217.491 280.091 215.909L279.761 169.593C279.75 168.011 278.527 166.738 277.029 166.75L211.431 167.27C209.933 167.282 208.728 168.574 208.739 170.156L209.068 216.472C209.08 218.054 210.304 219.327 211.801 219.315Z" fill="#F47458"/>
<path d="M277.75 192.513L298.93 215.307L272.802 210.157L277.75 192.513Z" fill="#F47458"/>
<path d="M258.642 189.301L252.268 189.18C252.268 189.18 244.236 182.846 243.99 180.607C243.745 178.369 245.061 173.631 243.815 173.036C242.57 172.442 239.931 171.971 238.264 174.936C237.054 177.087 238.061 184.942 237.312 185.467C236.844 185.796 233.179 185.836 230.501 185.819C228.74 185.808 227.121 186.831 226.295 188.474L226.293 188.479C225.735 189.589 225.989 190.961 226.902 191.767L228.324 193.023L227.205 194.593C226.372 195.762 226.588 197.421 227.69 198.308L228.812 199.212L228.044 200.137C227.054 201.328 227.263 203.162 228.491 204.071L229.489 204.81L229.34 205.101C228.717 206.313 229.074 207.827 230.163 208.589L231.165 209.289L248.141 209.607C249.732 209.637 251.311 209.324 252.782 208.685L258.77 207.755C259.414 207.655 259.891 207.073 259.893 206.386L259.932 190.693C259.934 189.934 259.359 189.315 258.642 189.301Z" fill="white"/>
<path d="M348.111 228.753L342.211 247.447L360.192 239.978L348.111 228.753Z" fill="#F79C8D"/>
<path d="M366.648 173.123C365.45 173.175 362.165 174.332 357.361 183.887C351.227 196.089 342.261 232.949 342.261 232.949L369.023 243.439L372.461 235.745L378.124 176.515C378.124 176.515 366.981 173.108 366.648 173.123Z" fill="#042A44"/>
<path d="M402.025 167.81C394.373 167.821 375.437 170.171 366.649 173.126C366.649 173.126 360.192 231.53 372.461 275.91C375.208 285.844 370.19 317.092 370.19 317.092L449.489 315.99C449.489 315.99 440.095 240.448 443.634 228.246C447.173 216.044 447.257 173.518 447.257 173.518C447.257 173.518 446.714 173.429 429.441 170.287C421.384 168.821 410.196 167.799 402.025 167.81Z" fill="#07345A"/>
<path d="M411.265 425.493C411.265 425.493 409.511 446.804 406.286 452.706C403.06 458.608 406.455 468.64 406.625 470.017C406.795 471.394 413.416 473.362 423.941 472.181C434.467 471.001 434.297 468.444 433.448 464.312C432.599 460.182 426.997 454.87 426.658 450.935C426.318 447.001 429.883 432.837 429.883 432.837L411.265 425.493Z" fill="#F7A491"/>
<path d="M379.137 299.502C379.137 299.502 324.397 296.303 312.172 304.095C299.949 311.886 314.383 327.887 314.383 327.887C314.383 327.887 358.948 348.28 433.556 352.812C451.223 353.885 452.746 304.327 449.443 300.225C446.139 296.125 379.137 299.502 379.137 299.502Z" fill="#327F6B"/>
<path d="M425.254 473.836C436.093 472.62 434.752 467.016 433.878 462.762C433.331 460.098 430.222 456.958 428.369 453.988C427.4 454.8 425.824 456.234 421.117 457.698C416.229 459.217 409.529 456.21 405.259 454.326C403.738 460.287 403.668 467.888 403.81 469.041C403.985 470.459 414.416 475.051 425.254 473.836Z" fill="#355389"/>
<path d="M419.272 340.72C417.085 358.138 406.256 444.85 406.256 444.85L431.382 448.129C431.382 448.129 462.279 334.949 460.695 317.638C459.11 300.327 447.545 298.87 447.545 298.87C447.545 298.87 425.061 294.611 419.272 340.72Z" fill="#3C8F7C"/>
<path d="M395.202 94.126C395.202 94.126 403.55 84.8307 410.265 96.1382C410.265 96.1382 415.437 93.0719 419.066 98.5341C419.066 98.5341 428.412 95.5634 430.681 110.321C430.681 110.321 435.49 109.363 436.125 115.4C436.76 121.437 433.857 125.462 433.857 125.462C433.857 125.462 436.558 127.601 435.331 133.152C434.288 137.872 430.59 138.59 430.59 138.59C430.59 138.59 429.592 146.544 426.325 148.939C423.059 151.335 418.613 150.186 418.613 150.186C418.613 150.186 417.433 154.498 413.622 154.114C409.811 153.731 405.093 149.898 400.828 151.623C396.564 153.348 385.493 151.527 385.493 151.527C385.493 151.527 373.062 145.681 376.783 132.265C376.783 132.265 370.249 126.037 375.966 118.562C375.966 118.562 371.792 106.871 380.049 99.9715C388.306 93.0719 395.202 94.126 395.202 94.126Z" fill="#07345A"/>
<path d="M396.612 157.233L395.101 169.072C395.101 169.072 391.716 186.13 396.071 189.418C400.426 192.707 414.591 168.586 414.591 168.586L413.095 138.585L396.612 157.233Z" fill="#F7A491"/>
<path d="M413.579 148.308C409.981 158.541 401.413 164.831 395.331 167.271L396.613 157.233L413.096 138.585L413.579 148.308Z" fill="#F47458"/>
<path d="M403.031 107.066C394.193 103.853 384.773 110.053 383.424 119.675C382.838 123.856 382.307 129.115 382.208 134.865C381.97 148.693 388.749 162.152 394.695 162.152C400.641 162.152 417.074 153.2 417.669 133.568C418.036 121.448 412.306 110.438 403.031 107.066Z" fill="#F7A491"/>
<path d="M413.287 135.121C413.287 138.171 415.202 140.644 417.564 140.644C419.926 140.644 421.841 138.171 421.841 135.121C421.841 132.07 419.926 129.597 417.564 129.597C415.202 129.597 413.287 132.07 413.287 135.121Z" fill="#F7A491"/>
<path d="M377.271 100.185C371.129 105.324 368.977 113.131 372.464 117.624C375.95 122.116 383.756 121.593 389.898 116.455C396.04 111.316 398.192 103.509 394.705 99.016C391.219 94.5235 383.413 95.047 377.271 100.185Z" fill="#07345A"/>
<path d="M448.121 180.01C440.706 177.083 437.079 247.396 436.08 276.337C422.95 277.667 400.064 276.347 394.366 275.897C391.686 275.685 385.506 273.303 382.841 272.935C380.11 272.559 377.634 272.363 376.291 272.609C375.798 272.699 362.112 278.589 360.941 279.881C359.489 281.483 355.564 285.524 356.227 287.272C356.889 289.02 363.776 282.403 363.776 282.403L367.141 280.416C362.952 284.724 354.96 290.397 356.111 292.463C357.234 294.478 364.443 288.72 369.58 284.796C365.174 288.986 359.699 296.483 360.96 297.651C362.094 298.702 368.321 290.022 374.977 287.523C377.443 286.597 379.901 289.162 381.841 289.472C383.267 289.699 385.468 290.184 386.867 289.767L394.073 287.616C396.528 287.849 396.59 289.378 399.068 289.933C401.946 290.578 406.668 291.256 410.333 292.199C431.437 297.626 438.476 300.146 444.937 300.142C464.509 300.129 465.644 186.929 448.121 180.01Z" fill="#F7A491"/>
<path d="M462.192 246.022C463.581 216.377 463.377 179.839 447.588 173.605C441.358 171.146 430.376 185.935 432.351 246.624C440.78 247.357 453.155 247.947 462.192 246.022Z" fill="#07345A"/>
<path d="M373.858 233.285H375.467L399.662 295.864L397.996 295.597L373.858 233.285Z" fill="#F79C8D"/>
<path d="M337.793 443.722C337.793 443.722 339.986 451.12 336.06 456.013C332.135 460.905 315.822 465.705 313.681 468.355C311.54 471.005 311.702 473.261 311.702 473.261L357.485 471.935L356.987 457.382L354.878 446.924L337.793 443.722Z" fill="#F7A491"/>
<path d="M333.213 458.452C333.213 458.452 344.977 463.461 350.659 460.495C356.341 457.53 356.17 456.709 357.814 457.814C359.459 458.92 360.047 472.562 360.047 472.562L308.565 474.155C304.983 474.068 303.172 471.291 306.082 468.914C308.078 467.284 310.384 466.192 311.695 465.401C315.723 462.97 333.213 458.452 333.213 458.452Z" fill="#355389"/>
<path d="M339.529 313.158C335.99 305.32 327.942 295.116 313.782 301.262C300.276 307.124 296.651 321.53 300.912 336.283C305.173 351.035 333.226 437.756 334.204 449.679L356.602 449.836C356.602 449.836 352.531 381.169 351.533 364.571C350.572 348.6 345.653 326.723 339.529 313.158Z" fill="#3C8F7C"/>
<path d="M303.168 233.285H378.039C380.02 233.285 381.804 234.549 382.556 236.484L405.609 295.864H446.886C448.04 295.864 448.976 296.852 448.976 298.07C448.976 299.288 448.04 300.275 446.886 300.275H329.409C326.179 300.275 323.25 298.273 321.927 295.161L298.714 240.552C297.264 237.141 299.627 233.285 303.168 233.285Z" fill="#F47458"/>
<path d="M343.478 267.862C343.984 270.529 346.187 272.313 348.399 271.846C350.61 271.379 351.993 268.838 351.488 266.171C350.982 263.504 348.779 261.72 346.567 262.187C344.356 262.654 342.973 265.195 343.478 267.862Z" fill="white"/>
<path opacity="0.3" d="M529.5 148C551.315 148 569 130.539 569 109C569 87.4609 551.315 70 529.5 70C507.685 70 490 87.4609 490 109C490 130.539 507.685 148 529.5 148Z" fill="#C3F8FF"/>
<path d="M501.998 108.396H487.445V109.504H501.998V108.396Z" fill="#184655"/>
<path d="M572.441 108.396H557.889V109.504H572.441V108.396Z" fill="#184655"/>
<path d="M530.397 67.3857H529.278V81.8088H530.397V67.3857Z" fill="#184655"/>
<path d="M530.397 136.924H529.278V151.347H530.397V136.924Z" fill="#184655"/>
<path d="M531.103 109.166C531.103 109.826 530.564 110.36 529.899 110.36C529.233 110.36 528.694 109.826 528.694 109.166C528.694 108.507 529.233 107.972 529.899 107.972C530.564 107.972 531.103 108.507 531.103 109.166Z" fill="#184655"/>
<path d="M529.898 109.7C529.761 109.7 529.623 109.648 529.518 109.543L507.872 88.0905C507.662 87.8821 507.662 87.5443 507.872 87.3358C508.083 87.1274 508.424 87.1274 508.634 87.3358L530.279 108.789C530.49 108.997 530.49 109.335 530.279 109.543C530.174 109.648 530.036 109.7 529.898 109.7Z" fill="#184655"/>
<path d="M536.858 130.847C536.769 130.802 536.696 130.723 536.662 130.622L529.666 109.676C529.598 109.473 529.709 109.253 529.915 109.186C530.12 109.119 530.342 109.229 530.41 109.432L537.406 130.378C537.474 130.581 537.363 130.801 537.157 130.868C537.055 130.902 536.948 130.891 536.858 130.847Z" fill="#184655"/>
<path d="M612.893 198.413L616.192 192.753L613.543 191.618C612.963 191.369 612.683 190.672 612.918 190.059C613.154 189.447 613.814 189.151 614.394 189.4L617.45 190.709L620.4 185.626L617.57 184.414C616.99 184.165 616.711 183.467 616.946 182.855C617.181 182.243 617.841 181.948 618.421 182.196L621.658 183.582L625.084 177.761C625.375 177.267 625.961 177.065 626.472 177.284L626.966 177.496C627.614 177.773 627.872 178.599 627.506 179.23L624.32 184.722L629.012 186.732L632.438 180.911C632.729 180.417 633.315 180.215 633.826 180.434L634.365 180.665C635.014 180.942 635.271 181.768 634.906 182.399L631.719 187.891L634.369 189.026C634.949 189.275 635.228 189.972 634.993 190.585C634.758 191.197 634.097 191.492 633.517 191.244L630.461 189.935L627.556 195.037L630.387 196.249C630.967 196.498 631.246 197.195 631.011 197.808C630.776 198.42 630.115 198.715 629.535 198.467L626.299 197.081L622.799 203.084C622.509 203.581 621.921 203.785 621.409 203.565L620.831 203.318C620.181 203.04 619.925 202.212 620.292 201.582L623.592 195.921L618.899 193.912L615.4 199.914C615.11 200.412 614.522 200.616 614.009 200.396L613.432 200.149C612.783 199.871 612.525 199.043 612.893 198.413ZM624.85 193.878L627.8 188.795L623.107 186.785L620.157 191.868L624.85 193.878Z" fill="#07345A"/>
<path d="M323.415 44.4501L326.789 36.4082L322.429 28.9141C321.932 28.0606 322.578 26.9762 323.521 27.0789L331.806 27.9824L337.207 21.2872C337.822 20.5247 338.999 20.8382 339.198 21.8178L340.944 30.418L348.643 33.7744C349.519 34.1567 349.601 35.4349 348.78 35.9373L341.575 40.349L340.931 49.1184C340.858 50.1173 339.732 50.5938 339.026 49.9249L332.826 44.0511L324.73 46.1148C323.808 46.3497 323.031 45.3659 323.415 44.4501Z" fill="#F48C7F"/>
<path d="M567.813 44.442L570.344 38.41L567.073 32.7885C566.701 32.1484 567.185 31.3348 567.893 31.412L574.107 32.0898L578.159 27.0677C578.621 26.4958 579.503 26.7309 579.652 27.4657L580.962 33.9166L586.736 36.4341C587.394 36.721 587.455 37.6796 586.839 38.0564L581.435 41.3657L580.952 47.9438C580.897 48.693 580.052 49.0504 579.523 48.5486L574.873 44.1429L568.8 45.6907C568.108 45.8669 567.525 45.129 567.813 44.442Z" fill="#F7CC7F"/>
<path d="M542.694 216.79L542.293 211.793L538.168 209.309C537.698 209.026 537.74 208.297 538.238 208.075L542.614 206.129L543.576 201.218C543.686 200.658 544.355 200.475 544.709 200.907L547.814 204.7L552.534 204.149C553.071 204.086 553.444 204.702 553.164 205.191L550.707 209.482L552.662 214.052C552.885 214.573 552.445 215.137 551.919 215.007L547.295 213.865L543.784 217.241C543.384 217.626 542.74 217.359 542.694 216.79Z" fill="#F48C7F"/>
<path d="M164.172 143.327L166.028 138.904L163.63 134.781C163.356 134.312 163.712 133.715 164.231 133.772L168.788 134.269L171.759 130.586C172.097 130.167 172.744 130.339 172.853 130.878L173.814 135.609L178.049 137.455C178.531 137.665 178.576 138.368 178.124 138.645L174.161 141.071L173.807 145.895C173.767 146.445 173.147 146.707 172.759 146.339L169.349 143.108L164.895 144.243C164.388 144.372 163.961 143.831 164.172 143.327Z" fill="#F7CC7F"/>
<path d="M307.811 135.323L309.666 130.899L307.268 126.777C306.995 126.307 307.35 125.711 307.869 125.767L312.426 126.265L315.397 122.582C315.736 122.162 316.382 122.335 316.492 122.874L317.453 127.605L321.687 129.451C322.17 129.661 322.214 130.364 321.763 130.641L317.799 133.067L317.446 137.891C317.405 138.441 316.786 138.703 316.398 138.335L312.987 135.104L308.534 136.239C308.026 136.368 307.599 135.826 307.811 135.323Z" fill="#50BFA5"/>
<path d="M236.295 63.6625L243.65 62.5362L246.673 74.8325L257.618 74.5856L261.306 83.3971L265.529 81.4257L260.598 69.6409L250.225 69.8747L247.08 57.0829L236.013 58.7782L236.295 63.6625Z" fill="#50BFA5"/>
<path d="M220.527 269.635L226.092 264.434L235.005 272.967L244.03 266.422L251.688 271.656L254.197 267.562L243.954 260.562L235.401 266.764L226.129 257.888L217.755 265.713L220.527 269.635Z" fill="#07345A"/>
<path d="M133.119 276.068L137.789 268.057L134.039 266.451C133.218 266.1 132.823 265.112 133.156 264.246C133.489 263.379 134.424 262.961 135.244 263.313L139.569 265.165L143.745 257.971L139.739 256.255C138.918 255.904 138.523 254.917 138.856 254.05C139.188 253.183 140.123 252.765 140.944 253.117L145.524 255.078L150.373 246.84C150.785 246.14 151.615 245.855 152.338 246.165L153.037 246.464C153.955 246.857 154.319 248.027 153.802 248.918L149.292 256.692L155.933 259.536L160.782 251.298C161.194 250.598 162.023 250.313 162.747 250.622L163.51 250.949C164.427 251.342 164.792 252.512 164.274 253.403L159.765 261.177L163.515 262.783C164.336 263.134 164.731 264.122 164.398 264.989C164.065 265.855 163.13 266.273 162.31 265.922L157.985 264.07L153.873 271.291L157.879 273.007C158.7 273.358 159.095 274.346 158.762 275.212C158.43 276.079 157.494 276.497 156.674 276.145L152.093 274.183L147.14 282.679C146.73 283.383 145.898 283.672 145.172 283.361L144.354 283.011C143.435 282.617 143.071 281.445 143.591 280.553L148.262 272.543L141.62 269.698L136.667 278.194C136.257 278.898 135.425 279.186 134.699 278.875L133.882 278.525C132.963 278.132 132.599 276.96 133.119 276.068ZM150.042 269.65L154.217 262.456L147.576 259.612L143.401 266.806L150.042 269.65Z" fill="#50BFA5"/>
<path d="M557.361 377.412C556.886 372.981 556.322 368.45 554.375 364.496C552.007 359.689 547.848 356.22 544.214 352.4C537.424 345.261 532.199 336.465 529.063 326.895C526.638 319.496 525.429 311.612 522.087 304.623C520.047 300.356 517.264 296.541 514.946 292.436C509.468 282.732 506.486 271.264 499.057 263.143C497.628 272.99 500.453 283.439 506.588 290.996C508.417 293.25 510.539 295.281 511.933 297.86C514.464 302.542 514.233 308.254 514.529 313.639C515.087 323.758 517.787 333.739 522.375 342.637C527.249 352.089 534.284 360.506 536.89 370.915C538.843 378.715 538.262 387.464 542.426 394.224C542.877 394.957 543.393 395.693 543.504 396.559C543.566 397.046 543.494 397.539 543.422 398.025C543.329 398.653 543.235 399.281 543.142 399.909C542.195 406.293 541.216 414.416 546.411 419.193C550.011 422.505 554.644 422.579 557.229 418.18C559.833 413.752 559.602 407.27 559.409 402.285C559.087 393.986 558.246 385.662 557.361 377.412Z" fill="#3C8F7C"/>
<path d="M566.717 372.277C564.696 364.887 561.56 357.848 559.988 350.337C558.463 343.052 558.451 335.52 558.446 328.058C558.441 319.881 558.435 311.704 558.43 303.527C558.426 298.436 558.421 293.318 557.624 288.298C555.91 277.496 550.594 267.508 549.694 256.596C549.304 251.878 549.756 247.109 549.265 242.401C548.985 239.711 548.331 236.966 547.153 234.58C545.885 232.014 542.382 232.127 541.233 234.755C538.651 240.664 537.014 247.05 538.057 253.38C538.683 257.177 540.24 260.718 541.403 264.371C546.581 280.638 543.832 298.645 547.838 315.278C549.048 320.298 550.876 325.222 551.089 330.398C551.598 342.787 542.837 354.103 543.64 366.475C544.299 376.618 551.204 385.012 554.102 394.705C555.725 400.131 556.072 405.924 557.811 411.31C559.161 415.495 562.302 420.576 567.18 419.306C571.811 418.1 570.412 414.108 570.205 410.295C569.505 397.395 570.164 384.879 566.717 372.277Z" fill="#327F6B"/>
<path d="M577.318 379.049C577.114 375.209 576.5 371.348 577.008 367.539C577.438 364.323 578.65 361.292 579.516 358.176C581.138 352.337 581.54 346.208 581.933 340.135C582.647 329.097 583.361 318.059 584.075 307.021C585.185 289.863 586.301 272.656 589.339 255.761C590.182 251.07 591.129 245.988 589.133 241.706C588.712 240.803 587.884 239.845 586.976 240.146C586.33 240.36 586.012 241.112 585.778 241.785C579.138 260.843 576.628 281.361 569.216 300.098C567.441 304.586 565.376 309.002 564.456 313.77C563.353 319.494 563.959 325.408 564.101 331.249C564.306 339.626 563.533 348.067 561.343 356.119C560.197 360.333 558.663 364.451 558.035 368.785C557.252 374.188 557.909 379.692 558.399 385.134C559.341 395.597 559.661 406.122 559.354 416.627C559.174 422.803 564.111 422.641 567.381 418.847C569.668 416.194 569.647 413.281 570.43 409.977C573.001 399.133 577.942 390.806 577.318 379.049Z" fill="#3C8F7C"/>
<path d="M546.476 395.796C542.111 388.389 533.415 384.177 530.625 375.962C529.915 373.872 529.638 371.623 528.771 369.601C526.844 365.108 522.465 362.569 518.159 360.502C517.561 360.214 516.881 360.672 516.872 361.367C516.858 362.471 517.354 363.525 518.22 364.141C521.537 366.5 524.058 370.104 525.18 374.167C526.51 378.981 525.933 384.259 527.586 388.96C528.974 392.907 531.831 396.133 533.173 400.097C534.4 403.721 534.271 407.68 534.848 411.481C535.424 415.282 537.023 419.315 540.328 420.923C552.284 426.741 549.296 400.581 546.476 395.796Z" fill="#327F6B"/>
<path d="M596.208 393.351C596.021 396.932 596.54 400.686 595.213 403.987C594.364 406.098 592.837 407.805 591.583 409.678C587.182 416.252 585.586 425.568 578.823 429.27C578.376 429.514 577.878 429.732 577.385 429.635C576.692 429.499 576.238 428.793 575.959 428.108C574.301 424.028 576.162 419.432 577.263 415.147C577.456 414.397 577.618 413.562 577.279 412.872C576.907 412.114 576.058 411.785 575.479 411.19C574.323 410.003 574.432 408.039 574.662 406.352C575.235 402.137 576.041 397.958 577.074 393.843C577.66 391.51 578.336 389.156 579.609 387.153C581.011 384.947 583.046 383.301 584.952 381.57C593.373 373.919 599.824 363.862 603.435 352.755C604.216 350.351 604.913 347.812 606.528 345.929C608.142 344.046 611.02 343.077 612.987 344.538C614.386 345.578 608.655 355.313 607.987 356.48C606.078 359.816 606.052 362.719 604.973 366.424C602.329 375.501 596.713 383.625 596.208 393.351Z" fill="#3C8F7C"/>
<path d="M589.542 397.492C590.793 394.076 592.054 390.615 592.467 386.977C592.925 382.934 592.317 378.798 592.971 374.784C593.812 369.624 596.661 365.086 598.071 360.067C599.089 356.443 599.339 352.634 599.951 348.909C601.7 338.256 606.443 327.846 605.081 317.13C604.785 314.799 603.789 312.082 601.599 311.685C599.616 311.325 597.81 313.24 597.295 315.297C596.779 317.355 597.164 319.526 597.305 321.65C597.7 327.573 596.1 333.623 592.858 338.468C589.742 343.123 585.222 346.629 582.419 351.501C578.98 357.478 578.512 364.774 576.757 371.52C573.268 384.937 564.516 396.641 562.92 410.453C562.285 415.95 563.507 422.631 568.31 424.826C582.202 431.177 586.395 406.087 589.542 397.492Z" fill="#327F6B"/>
<path d="M565.257 414.519H563.036H533.377C531.197 414.519 529.589 416.673 530.093 418.917L541.715 470.672C542.076 472.282 543.435 473.418 544.998 473.418H563.036H565.258H583.295C584.858 473.418 586.217 472.282 586.579 470.672L598.2 418.917C598.704 416.673 597.096 414.519 594.916 414.519H565.257Z" fill="#F47458"/>
<path d="M245.397 353.945H90.4282V362.398H245.397V353.945Z" fill="#184655"/>
<path d="M194.548 402.979H93.2298V410.375H194.548V402.979Z" fill="#184655"/>
<path d="M230.189 358.171H223.652V473.457H230.189V358.171Z" fill="#184655"/>
<path d="M137.742 358.171H131.205V473.457H137.742V358.171Z" fill="#184655"/>
<path d="M177.157 473.457L212.371 359.163L206.599 357.18L170.774 473.457H177.157Z" fill="#184655"/>
<path d="M78.1014 473.457L108.22 358.912L102.371 357.197L71.8016 473.457H78.1014Z" fill="#184655"/>
<path d="M530 63C504.595 63 484 83.5948 484 109C484 134.405 504.595 155 530 155C555.405 155 576 134.405 576 109C576 83.5948 555.405 63 530 63ZM532.467 148.31C510.757 149.673 492.052 133.177 490.69 111.467C489.327 89.7568 505.823 71.0524 527.533 69.69C549.243 68.3277 567.948 84.823 569.31 106.533C570.673 128.243 554.177 146.948 532.467 148.31Z" fill="#184655"/>
<path d="M740.702 472.75H30.7378V477.848H740.702V472.75Z" fill="#A79986"/>
<path d="M388.307 146.803L399.789 146.604C399.789 146.604 399.595 151.226 394.549 151.468C388.395 151.763 388.307 146.803 388.307 146.803Z" fill="white"/>
</svg>
