<svg width="40" height="46" viewBox="0 0 40 46" fill="none" xmlns="http://www.w3.org/2000/svg">
<path d="M20 43L15.5556 40.7778M20 43L24.4444 40.7778M20 43V37.4444M6.66667 36.3333L2.22222 34.1111V28.5556M2.22222 17.4444V11.8889M2.22222 11.8889L6.66667 9.66667M2.22222 11.8889L6.66667 14.1111M15.5556 5.22222L20 3L24.4444 5.22222M33.3333 9.66667L37.7778 11.8889M37.7778 11.8889L33.3333 14.1111M37.7778 11.8889V17.4444M20 20.7778L15.5556 18.5556M20 20.7778L24.4444 18.5556M20 20.7778V26.3333M33.3333 36.3333L37.7778 34.1111V28.5556" stroke="#FBFAF7" stroke-width="4.44444" stroke-linecap="round" stroke-linejoin="round"/>
</svg>
