<svg width="135" height="135" viewBox="0 0 135 135" fill="none" xmlns="http://www.w3.org/2000/svg">
<g clip-path="url(#clip0_23017_968)">
<path d="M48.8531 13.2806H81.4725C82.6537 13.2806 83.5987 14.2087 83.5987 15.3562V59.1131C83.5899 59.6696 83.3614 60.2001 82.9631 60.5889C82.5648 60.9776 82.0291 61.1933 81.4725 61.1888H53.5275C45.3009 61.1888 38.6269 67.6856 38.6269 75.7012V85.5056C38.6114 86.0592 38.3789 86.5844 37.9795 86.968C37.5801 87.3516 37.0459 87.5628 36.4922 87.5559H15.7528C15.1948 87.5627 14.6568 87.3481 14.2567 86.959C13.8566 86.57 13.627 86.0383 13.6181 85.4803V52.1184C13.627 51.5619 13.8555 51.0315 14.2538 50.6427C14.652 50.2539 15.1878 50.0383 15.7444 50.0428H67.3313C70.8581 50.0428 73.7184 47.2584 73.7184 43.8244C73.7085 42.9959 73.5354 42.1776 73.2089 41.4161C72.8825 40.6547 72.4091 39.965 71.8158 39.3867C71.2226 38.8084 70.5212 38.3527 69.7517 38.0456C68.9821 37.7386 68.1597 37.5863 67.3313 37.5975H46.7184V15.3562C46.7273 14.7983 46.957 14.2665 47.3571 13.8775C47.7572 13.4885 48.2951 13.2739 48.8531 13.2806ZM96.3731 35.1506V15.3562C96.3731 7.34063 89.7075 0.84375 81.4725 0.84375H48.8531C40.6181 0.84375 33.9441 7.34063 33.9441 15.3562V37.5975H15.7528C7.50937 37.5975 0.84375 44.0944 0.84375 52.11V85.4803C0.84375 93.4959 7.50938 99.9928 15.7444 99.9928H36.5006C37.2178 99.9928 37.935 99.9422 38.6269 99.8494V119.644C38.6269 127.659 45.2925 134.156 53.5275 134.156H86.1469C94.3819 134.156 101.056 127.659 101.056 119.644V97.4025H119.247C127.482 97.4025 134.156 90.9056 134.156 82.89V49.5112C134.156 41.4956 127.491 34.9987 119.247 34.9987H98.5078C97.7822 34.9987 97.0734 35.0494 96.3731 35.1506ZM51.4013 85.5563V75.8869C51.4101 75.3304 51.6386 74.7999 52.0369 74.4111C52.4352 74.0224 52.9709 73.8067 53.5275 73.8112H81.4725C89.7075 73.8112 96.3731 67.3144 96.3731 59.2987V49.4944C96.3886 48.9408 96.6211 48.4156 97.0205 48.032C97.4199 47.6484 97.9541 47.4372 98.5078 47.4441H119.247C120.428 47.4441 121.382 48.3722 121.382 49.5197V82.8816C121.373 83.4381 121.145 83.9685 120.746 84.3573C120.348 84.7461 119.812 84.9617 119.256 84.9572H67.6688C66.841 84.946 66.0192 85.098 65.2503 85.4045C64.4813 85.711 63.7802 86.166 63.1871 86.7434C62.594 87.3209 62.1204 88.0095 61.7935 88.77C61.4665 89.5305 61.2926 90.3479 61.2816 91.1756C61.2816 94.6181 64.1419 97.4025 67.6688 97.4025H88.2731V119.644C88.2642 120.202 88.0346 120.733 87.6345 121.122C87.2344 121.512 86.6964 121.726 86.1384 121.719H53.5275C52.9709 121.724 52.4352 121.508 52.0369 121.119C51.6386 120.731 51.4101 120.2 51.4013 119.644V85.5563Z" fill="#FBFAF7"/>
</g>
<defs>
<clipPath id="clip0_23017_968">
<rect width="135" height="135" fill="white"/>
</clipPath>
</defs>
</svg>
