<svg width="64" height="64" viewBox="0 0 64 64" fill="none" xmlns="http://www.w3.org/2000/svg">
<path d="M7.69096 29.3771C7.69096 29.3771 29.5103 20.4498 37.0776 17.3064C39.9783 16.0491 49.816 12.0254 49.816 12.0254C49.816 12.0254 54.3563 10.2654 53.978 14.5401C53.8516 16.3004 52.8426 22.4614 51.8336 29.1254C50.3203 38.5558 48.6806 48.8658 48.6806 48.8658C48.6806 48.8658 48.4286 51.7578 46.2846 52.2608C44.1403 52.7638 40.609 50.5004 39.9783 49.9974C39.474 49.6201 30.5193 43.9621 27.2403 41.1961C26.3573 40.4418 25.3483 38.9328 27.3663 37.1724C31.9066 33.0234 37.33 27.8681 40.609 24.5991C42.1223 23.0901 43.636 19.5694 37.33 23.8444C28.3753 30.0054 19.5466 35.7894 19.5466 35.7894C19.5466 35.7894 17.529 37.0468 13.7453 35.9151C9.96163 34.7834 5.5473 33.2748 5.5473 33.2748C5.5473 33.2748 2.52063 31.3884 7.69163 29.3771H7.69096Z" stroke="#FBFAF7" stroke-width="3"/>
</svg>
