<svg width="96" height="96" viewBox="0 0 96 96" fill="none" xmlns="http://www.w3.org/2000/svg">
<path d="M28 80C28 68.9544 36.9543 60 48 60C59.0456 60 68 68.9544 68 80M28.8 80H67.2C71.6804 80 73.9208 80 75.632 79.128C77.1372 78.3612 78.3612 77.1372 79.128 75.632C80 73.9208 80 71.6804 80 67.2V28.8C80 24.3196 80 22.0794 79.128 20.3681C78.3612 18.8628 77.1372 17.6389 75.632 16.872C73.9208 16 71.6804 16 67.2 16H28.8C24.3196 16 22.0794 16 20.3681 16.872C18.8628 17.6389 17.6389 18.8628 16.872 20.3681C16 22.0794 16 24.3196 16 28.8V67.2C16 71.6804 16 73.9208 16.872 75.632C17.6389 77.1372 18.8628 78.3612 20.3681 79.128C22.0794 80 24.3196 80 28.8 80ZM56 40C56 44.4184 52.4184 48 48 48C43.5816 48 40 44.4184 40 40C40 35.5817 43.5816 32 48 32C52.4184 32 56 35.5817 56 40Z" stroke="#4F3C3C" stroke-width="7.91667" stroke-linecap="round" stroke-linejoin="round"/>
</svg>
