<svg width="567" height="567" viewBox="0 0 567 567" fill="none" xmlns="http://www.w3.org/2000/svg">
<path d="M544.109 371.108C488.802 500.29 342.806 555.777 228.417 546.316C197.184 543.733 134.342 538.536 85.2751 492.168C-8.95506 403.122 5.55732 216.992 95.7625 107.409C107.379 93.2965 187.787 -1.25296 313.088 0.0125879C404.827 0.939195 469.217 52.7235 477.047 59.1748C486.938 67.3246 508.753 86.6909 528.414 117.415C574.611 189.604 578.671 290.382 544.109 371.108Z" fill="#F1DBCF"/>
<g opacity="0.3">
<path d="M387.744 103.773C386.665 103.773 385.738 102.958 385.623 101.862C385.372 99.4654 385.221 97.0223 385.175 94.6007C385.153 93.4225 386.09 92.4491 387.269 92.4268C387.283 92.4268 387.296 92.4268 387.31 92.4268C388.47 92.4268 389.421 93.355 389.444 94.5191C389.487 96.8198 389.631 99.1405 389.869 101.417C389.992 102.588 389.141 103.638 387.968 103.761C387.893 103.769 387.818 103.773 387.744 103.773ZM387.881 85.1891C387.798 85.1891 387.713 85.1841 387.628 85.1743C386.457 85.0359 385.62 83.9752 385.759 82.8053C386.043 80.4022 386.434 77.9874 386.919 75.6285C387.156 74.4745 388.28 73.7337 389.44 73.9678C390.595 74.2053 391.338 75.3336 391.101 76.4866C390.64 78.729 390.269 81.0228 389.999 83.307C389.871 84.3917 388.948 85.1891 387.881 85.1891ZM392.11 67.0982C391.873 67.0982 391.631 67.0582 391.394 66.974C390.284 66.5783 389.704 65.3583 390.099 64.2485C390.91 61.9735 391.83 59.7054 392.834 57.5073C393.324 56.4356 394.591 55.9649 395.663 56.4523C396.735 56.9415 397.208 58.2072 396.718 59.2787C395.765 61.366 394.891 63.5192 394.121 65.68C393.81 66.5531 392.988 67.0982 392.11 67.0982ZM400.283 50.403C399.89 50.403 399.493 50.2947 399.137 50.0681C398.143 49.4348 397.852 48.1156 398.485 47.1225C399.786 45.0853 401.19 43.0796 402.659 41.1612C403.376 40.2272 404.715 40.0488 405.652 40.7638C406.588 41.4797 406.766 42.8186 406.05 43.7544C404.655 45.5759 403.32 47.4807 402.085 49.4173C401.678 50.0546 400.988 50.403 400.283 50.403ZM411.976 35.9484C411.425 35.9484 410.875 35.7366 410.458 35.3143C409.629 34.4761 409.637 33.1254 410.476 32.2978C412.192 30.6037 414.005 28.959 415.865 27.4108C416.77 26.6558 418.116 26.7775 418.871 27.6832C419.626 28.5882 419.504 29.9331 418.598 30.6881C416.83 32.1596 415.107 33.7229 413.476 35.3328C413.06 35.7432 412.518 35.9484 411.976 35.9484ZM426.577 24.4393C425.863 24.4393 425.166 24.0827 424.762 23.4327C424.139 22.432 424.446 21.117 425.447 20.4946C427.499 19.2198 429.631 18.0166 431.785 16.92C432.836 16.3849 434.121 16.8025 434.656 17.8524C435.192 18.9014 434.774 20.1864 433.724 20.7214C431.677 21.7638 429.651 22.9062 427.702 24.1177C427.351 24.3358 426.961 24.4393 426.577 24.4393ZM504.801 19.3605C504.505 19.3605 504.206 19.2988 503.919 19.1688C501.831 18.2205 499.673 17.3507 497.506 16.584C496.395 16.1909 495.813 14.9717 496.207 13.8619C496.6 12.751 497.82 12.1696 498.931 12.5628C501.214 13.3703 503.486 14.286 505.685 15.2844C506.759 15.7718 507.233 17.0367 506.745 18.1092C506.388 18.8955 505.612 19.3605 504.801 19.3605ZM443.356 16.4549C442.47 16.4549 441.643 15.8999 441.338 15.0165C440.953 13.9025 441.546 12.6884 442.66 12.3042C444.944 11.5168 447.291 10.8193 449.635 10.231C450.779 9.94933 451.938 10.6369 452.225 11.78C452.513 12.9224 451.818 14.0815 450.675 14.369C448.449 14.9273 446.221 15.5897 444.052 16.3371C443.821 16.4165 443.586 16.4549 443.356 16.4549ZM487.111 13.6292C486.97 13.6292 486.827 13.616 486.684 13.5868C484.435 13.1294 482.137 12.7635 479.853 12.4979C478.682 12.3613 477.843 11.3021 477.979 10.1322C478.116 8.96225 479.175 8.11822 480.346 8.25986C482.75 8.53973 485.168 8.92488 487.535 9.40546C488.69 9.64053 489.436 10.767 489.201 11.9211C488.995 12.9319 488.105 13.6292 487.111 13.6292ZM461.499 12.4161C460.422 12.4161 459.496 11.6036 459.379 10.5097C459.254 9.33815 460.103 8.28739 461.275 8.16141C463.675 7.90565 466.119 7.74974 468.538 7.69972C468.553 7.69891 468.569 7.69891 468.584 7.69891C469.742 7.69891 470.693 8.62472 470.717 9.787C470.742 10.9653 469.806 11.9402 468.627 11.9643C466.33 12.0125 464.009 12.1608 461.728 12.4043C461.651 12.4119 461.575 12.4161 461.499 12.4161Z" fill="#F3B6A7"/>
<path d="M517.831 26.7657C517.411 26.7657 516.986 26.6424 516.615 26.3842C515.711 25.7559 514.779 25.1367 513.845 24.5418C512.851 23.9094 512.558 22.5904 513.191 21.5971C513.824 20.6029 515.144 20.3088 516.138 20.9437C517.121 21.5687 518.101 22.2203 519.052 22.8811C520.02 23.5535 520.259 24.8834 519.586 25.85C519.171 26.4465 518.507 26.7657 517.831 26.7657Z" fill="#F3B6A7"/>
</g>
<g opacity="0.3">
<path d="M552.511 81.7995C551.481 81.7995 550.574 81.0529 550.405 80.0038C550.231 78.9181 550.032 77.8173 549.812 76.7331C549.577 75.5783 550.324 74.4524 551.479 74.2183C552.64 73.9833 553.762 74.7308 553.996 75.8849C554.227 77.0265 554.438 78.1855 554.621 79.3287C554.808 80.492 554.015 81.586 552.851 81.7726C552.737 81.7911 552.623 81.7995 552.511 81.7995Z" fill="#F3B6A7"/>
<path d="M470.51 178.087C469.528 178.087 468.541 178.071 467.552 178.037C466.374 177.997 465.451 177.011 465.49 175.833C465.53 174.656 466.523 173.729 467.696 173.773C469.979 173.849 472.261 173.833 474.502 173.723C475.681 173.667 476.681 174.572 476.739 175.749C476.797 176.926 475.889 177.927 474.712 177.985C473.325 178.053 471.911 178.087 470.51 178.087ZM456.34 176.89C456.221 176.89 456.1 176.88 455.978 176.859C453.63 176.458 451.273 175.953 448.973 175.358C447.832 175.063 447.146 173.899 447.441 172.759C447.737 171.618 448.904 170.93 450.043 171.228C452.228 171.793 454.467 172.273 456.698 172.654C457.86 172.852 458.641 173.955 458.442 175.115C458.264 176.156 457.361 176.89 456.34 176.89ZM485.867 176.658C484.86 176.658 483.964 175.944 483.771 174.92C483.553 173.762 484.316 172.647 485.475 172.429C487.691 172.012 489.919 171.495 492.099 170.89C493.236 170.576 494.412 171.24 494.727 172.375C495.042 173.51 494.377 174.686 493.241 175.001C490.945 175.638 488.598 176.183 486.264 176.622C486.131 176.647 485.998 176.658 485.867 176.658ZM438.746 171.841C438.475 171.841 438.2 171.789 437.934 171.679C435.734 170.774 433.546 169.763 431.431 168.676C430.383 168.137 429.971 166.851 430.51 165.803C431.05 164.755 432.336 164.343 433.385 164.883C435.393 165.915 437.47 166.875 439.56 167.735C440.65 168.183 441.17 169.431 440.721 170.52C440.381 171.343 439.585 171.841 438.746 171.841ZM503.356 171.309C502.53 171.309 501.744 170.827 501.395 170.021C500.927 168.94 501.425 167.684 502.508 167.217C504.577 166.323 506.637 165.328 508.632 164.26C509.671 163.703 510.965 164.094 511.522 165.133C512.078 166.171 511.688 167.463 510.649 168.02C508.55 169.145 506.38 170.192 504.202 171.133C503.926 171.252 503.638 171.309 503.356 171.309ZM519.247 162.254C518.587 162.254 517.936 161.949 517.518 161.375C516.825 160.421 517.036 159.087 517.99 158.395C519.819 157.067 521.614 155.646 523.324 154.173C524.216 153.402 525.563 153.501 526.334 154.394C527.104 155.287 527.005 156.633 526.112 157.403C524.313 158.954 522.424 160.449 520.499 161.846C520.121 162.121 519.682 162.254 519.247 162.254ZM532.784 149.952C532.282 149.952 531.779 149.776 531.372 149.418C530.489 148.639 530.404 147.291 531.184 146.407C532.682 144.712 534.124 142.935 535.471 141.125C536.174 140.181 537.511 139.983 538.458 140.687C539.404 141.39 539.6 142.726 538.897 143.672C537.479 145.576 535.961 147.447 534.386 149.23C533.964 149.708 533.375 149.952 532.784 149.952ZM543.314 134.994C542.966 134.994 542.614 134.909 542.287 134.73C541.254 134.163 540.877 132.866 541.445 131.834C542.535 129.853 543.552 127.804 544.468 125.742C544.947 124.666 546.21 124.181 547.285 124.658C548.363 125.137 548.848 126.397 548.37 127.474C547.405 129.645 546.334 131.804 545.187 133.888C544.797 134.595 544.067 134.994 543.314 134.994ZM550.303 118.085C550.108 118.085 549.909 118.057 549.712 118.001C548.579 117.675 547.925 116.493 548.251 115.361C548.875 113.194 549.415 110.973 549.855 108.757C550.085 107.601 551.212 106.852 552.365 107.08C553.521 107.309 554.273 108.432 554.043 109.588C553.579 111.921 553.011 114.26 552.353 116.541C552.084 117.476 551.23 118.085 550.303 118.085ZM553.402 100.066C553.358 100.066 553.314 100.064 553.27 100.062C552.093 99.9903 551.198 98.9787 551.27 97.8032C551.371 96.1433 551.422 94.461 551.422 92.8011C551.422 92.2004 551.415 91.6004 551.402 91.0029C551.377 89.8248 552.312 88.8489 553.49 88.824C554.683 88.7748 555.645 89.7324 555.671 90.9097C555.684 91.539 555.692 92.1688 555.692 92.8013C555.692 94.547 555.638 96.3176 555.531 98.0634C555.462 99.1947 554.522 100.066 553.402 100.066Z" fill="#F3B6A7"/>
<path d="M422.655 163.014C422.231 163.014 421.803 162.889 421.429 162.627C420.484 161.963 419.534 161.266 418.608 160.556C417.672 159.839 417.495 158.5 418.212 157.566C418.929 156.631 420.268 156.452 421.204 157.17C422.085 157.844 422.987 158.506 423.885 159.136C424.849 159.813 425.082 161.144 424.404 162.108C423.988 162.699 423.327 163.014 422.655 163.014Z" fill="#FFE1DF"/>
</g>
<path d="M425.536 138.272C425.805 138.601 426.254 138.724 426.653 138.577L438.05 134.389C442.543 137.847 447.62 140.614 453.14 142.509L455.919 154.313C456.017 154.727 456.366 155.034 456.79 155.077L471.282 156.544C471.705 156.587 472.109 156.356 472.288 155.971L477.38 144.963C483.167 144.212 488.697 142.519 493.792 140.032L504.117 146.419C504.479 146.642 504.943 146.612 505.273 146.343L516.558 137.141C516.888 136.872 517.011 136.423 516.864 136.024L512.673 124.636C516.133 120.146 518.902 115.072 520.799 109.557L532.612 106.78C533.026 106.682 533.333 106.333 533.376 105.91L534.844 91.4282C534.887 91.0051 534.656 90.6013 534.27 90.4229L523.254 85.3344C522.503 79.5511 520.809 74.026 518.319 68.9343L524.711 58.6165C524.935 58.255 524.905 57.7909 524.636 57.4616L515.427 46.1848C515.158 45.8551 514.709 45.7326 514.309 45.8794L502.912 50.0676C498.419 46.6097 493.342 43.843 487.823 41.9476L485.043 30.143C484.946 29.7291 484.596 29.4225 484.173 29.3793L469.681 27.9127C469.257 27.8697 468.853 28.1001 468.675 28.4863L463.583 39.4938C457.795 40.2446 452.266 41.9379 447.17 44.4252L436.845 38.0382C436.483 37.8142 436.019 37.8445 435.689 38.1134L424.404 47.316C424.074 47.5848 423.952 48.0332 424.098 48.4324L428.289 59.8211C424.829 64.3107 422.06 69.3844 420.163 74.8994L408.351 77.6772C407.936 77.7744 407.629 78.124 407.587 78.5474L406.119 93.0283C406.076 93.4516 406.306 93.8553 406.693 94.0339L417.708 99.1224C418.46 104.905 420.154 110.431 422.643 115.522L416.252 125.84C416.027 126.202 416.058 126.665 416.327 126.995L425.536 138.272Z" fill="#FBBDB0"/>
<path d="M470.472 106.86C463.335 106.86 457.068 101.623 455.997 94.3617C454.82 86.3799 460.36 78.9307 468.347 77.7539C472.216 77.1831 476.076 78.1539 479.214 80.4845C482.353 82.8151 484.396 86.2282 484.966 90.0946C486.143 98.0764 480.603 105.526 472.616 106.702C471.896 106.808 471.179 106.86 470.472 106.86ZM470.505 81.0087C469.954 81.0087 469.4 81.0487 468.845 81.1305C462.721 82.0321 458.473 87.7449 459.376 93.8637C460.278 99.9831 465.993 104.23 472.118 103.326C478.242 102.425 482.489 96.7118 481.587 90.5932C481.15 87.6284 479.584 85.0119 477.177 83.2246C475.221 81.772 472.899 81.0087 470.505 81.0087Z" fill="#FFE1DF"/>
<path d="M470.771 127.991C469.545 127.991 468.312 127.93 467.076 127.805C466.687 127.766 466.298 127.72 465.911 127.668C463.999 127.412 462.111 127.005 460.275 126.452C460.25 126.445 460.225 126.437 460.2 126.43C460.129 126.408 460.058 126.387 459.987 126.364C459.849 126.321 459.712 126.277 459.575 126.233C459.213 126.117 458.984 125.782 458.983 125.422C458.983 125.335 458.997 125.246 459.025 125.158C459.17 124.71 459.652 124.466 460.1 124.61C462.409 125.357 464.814 125.861 467.248 126.106C479.337 127.332 490.618 122.093 497.642 113.203C501.55 108.26 504.141 102.186 504.822 95.4666C504.942 94.2882 505.001 93.1127 505 91.9444C505 84.0817 502.315 76.5215 497.273 70.3479C491.482 63.2559 483.273 58.8421 474.16 57.9199C455.339 56.0167 438.491 69.7615 436.585 88.5598C436.468 89.7189 436.41 90.8797 436.41 92.037C436.411 97.0526 437.51 102.012 439.646 106.556C439.701 106.673 439.727 106.797 439.727 106.918C439.727 107.238 439.545 107.546 439.236 107.691C438.808 107.89 438.301 107.709 438.1 107.281C435.858 102.51 434.703 97.3033 434.702 92.0378C434.702 90.8229 434.763 89.6048 434.886 88.388C436.887 68.6512 454.588 54.2233 474.332 56.2216C483.899 57.1898 492.516 61.8236 498.596 69.2688C503.889 75.7498 506.707 83.6869 506.709 91.9412C506.709 93.1677 506.646 94.4017 506.521 95.6384C505.552 105.199 500.915 113.81 493.465 119.885C486.978 125.176 479.033 127.991 470.771 127.991Z" fill="#FFE1DF"/>
<g opacity="0.3">
<path d="M314.896 159.988C314.325 159.988 313.8 159.616 313.631 159.041C313.316 157.968 313.029 156.87 312.778 155.779C312.615 155.07 313.058 154.364 313.768 154.201C314.478 154.035 315.185 154.481 315.348 155.19C315.587 156.23 315.861 157.276 316.161 158.3C316.367 158.997 315.966 159.73 315.268 159.935C315.144 159.971 315.019 159.988 314.896 159.988Z" fill="#F3B6A7"/>
<path d="M312.944 150.042C312.276 150.042 311.703 149.536 311.634 148.859C311.438 146.943 311.339 144.995 311.339 143.07C311.339 142.665 311.344 142.258 311.352 141.85C311.368 141.122 312.009 140.573 312.698 140.56C313.426 140.575 314.004 141.177 313.989 141.904C313.981 142.294 313.976 142.683 313.976 143.07C313.976 144.906 314.071 146.764 314.257 148.591C314.331 149.315 313.804 149.961 313.079 150.036C313.034 150.04 312.989 150.042 312.944 150.042ZM313.234 136.365C313.171 136.365 313.108 136.361 313.045 136.352C312.324 136.248 311.823 135.58 311.927 134.86C312.259 132.549 312.738 130.238 313.35 127.993C313.542 127.29 314.27 126.879 314.969 127.068C315.672 127.26 316.086 127.983 315.895 128.685C315.311 130.827 314.854 133.032 314.537 135.236C314.442 135.892 313.879 136.365 313.234 136.365ZM316.834 123.167C316.667 123.167 316.497 123.135 316.332 123.068C315.659 122.791 315.338 122.021 315.615 121.348C316.504 119.192 317.536 117.068 318.686 115.037C319.045 114.402 319.847 114.18 320.483 114.539C321.116 114.896 321.34 115.7 320.982 116.333C319.885 118.271 318.9 120.295 318.054 122.351C317.844 122.859 317.352 123.167 316.834 123.167ZM323.571 111.256C323.298 111.256 323.024 111.171 322.787 110.998C322.203 110.564 322.08 109.738 322.514 109.154C323.906 107.278 325.427 105.473 327.035 103.787C327.538 103.261 328.373 103.243 328.899 103.744C329.426 104.245 329.446 105.079 328.943 105.607C327.41 107.212 325.959 108.935 324.632 110.724C324.373 111.072 323.975 111.256 323.571 111.256ZM333.015 101.352C332.634 101.352 332.255 101.187 331.995 100.869C331.533 100.307 331.616 99.4772 332.178 99.0153C333.983 97.5369 335.897 96.1551 337.865 94.9096C338.481 94.5184 339.295 94.7025 339.685 95.3175C340.074 95.9325 339.892 96.747 339.277 97.1353C337.398 98.3243 335.573 99.6417 333.851 101.053C333.605 101.254 333.309 101.352 333.015 101.352ZM344.577 94.0385C344.083 94.0385 343.609 93.7592 343.384 93.283C343.073 92.6256 343.355 91.8407 344.013 91.5295C346.123 90.5335 348.316 89.66 350.529 88.9343C351.224 88.7091 351.966 89.085 352.194 89.7757C352.421 90.4666 352.044 91.2116 351.352 91.4381C349.241 92.1302 347.151 92.9628 345.14 93.9123C344.957 93.9987 344.766 94.0385 344.577 94.0385ZM357.574 89.7731C356.955 89.7731 356.404 89.3369 356.281 88.7091C356.141 87.995 356.607 87.3027 357.322 87.1626C359.605 86.7162 361.946 86.4074 364.28 86.2439C365.009 86.2053 365.637 86.7419 365.687 87.4674C365.738 88.1931 365.19 88.8224 364.464 88.8738C362.237 89.0283 360.005 89.3231 357.828 89.7488C357.742 89.7655 357.657 89.7731 357.574 89.7731ZM378.044 89.6059C377.968 89.6059 377.89 89.5995 377.812 89.5854C375.92 89.2495 373.975 89.0114 372.033 88.8778C371.739 88.8559 371.45 88.8378 371.161 88.8238C370.434 88.7852 369.875 88.1664 369.913 87.4395C369.95 86.7112 370.576 86.1322 371.298 86.1914C371.606 86.2081 371.913 86.2262 372.221 86.2493C374.251 86.3895 376.289 86.6391 378.273 86.9917C378.991 87.119 379.468 87.8023 379.341 88.519C379.228 89.1569 378.672 89.6059 378.044 89.6059Z" fill="#F3B6A7"/>
</g>
<g opacity="0.3">
<path d="M369.062 199.916C368.342 199.916 367.753 199.337 367.744 198.616C367.734 197.889 368.317 197.291 369.045 197.282C371.237 197.253 373.446 197.091 375.61 196.799C376.328 196.709 376.996 197.207 377.093 197.929C377.191 198.65 376.684 199.313 375.963 199.411C373.693 199.716 371.377 199.887 369.079 199.917C369.074 199.916 369.067 199.916 369.062 199.916ZM362.324 199.599C362.276 199.599 362.229 199.596 362.181 199.591C359.899 199.346 357.608 198.96 355.373 198.444C354.663 198.28 354.221 197.573 354.385 196.864C354.549 196.154 355.261 195.715 355.966 195.876C358.099 196.369 360.285 196.737 362.463 196.971C363.186 197.048 363.71 197.698 363.633 198.421C363.56 199.098 362.988 199.599 362.324 199.599ZM382.403 198.115C381.818 198.115 381.284 197.724 381.128 197.132C380.943 196.429 381.364 195.709 382.068 195.524C384.189 194.965 386.294 194.274 388.324 193.468C389.003 193.201 389.768 193.529 390.036 194.206C390.305 194.882 389.974 195.648 389.298 195.917C387.169 196.763 384.962 197.487 382.739 198.071C382.626 198.101 382.514 198.115 382.403 198.115ZM349.201 196.56C349.051 196.56 348.899 196.534 348.749 196.48C346.591 195.694 344.46 194.766 342.416 193.723C341.767 193.392 341.511 192.598 341.841 191.949C342.172 191.304 342.967 191.046 343.615 191.376C345.565 192.37 347.596 193.254 349.653 194.004C350.337 194.254 350.69 195.01 350.44 195.693C350.245 196.228 349.739 196.56 349.201 196.56ZM394.912 193.145C394.445 193.145 393.992 192.897 393.753 192.459C393.404 191.82 393.639 191.019 394.278 190.671C396.199 189.624 398.074 188.448 399.855 187.174C400.447 186.749 401.271 186.887 401.694 187.479C402.118 188.071 401.982 188.894 401.389 189.317C399.522 190.652 397.556 191.885 395.542 192.984C395.342 193.093 395.125 193.145 394.912 193.145ZM405.863 185.321C405.505 185.321 405.15 185.177 404.89 184.893C404.398 184.357 404.434 183.523 404.971 183.032C406.588 181.551 408.129 179.959 409.551 178.302C410.026 177.749 410.859 177.686 411.411 178.159C411.964 178.633 412.027 179.464 411.554 180.016C410.063 181.754 408.447 183.423 406.753 184.974C406.5 185.206 406.18 185.321 405.863 185.321ZM414.623 175.1C414.372 175.1 414.118 175.029 413.894 174.878C413.287 174.476 413.123 173.657 413.527 173.051C414.743 171.228 415.856 169.314 416.837 167.362C417.164 166.713 417.956 166.449 418.607 166.776C419.258 167.103 419.52 167.894 419.193 168.545C418.164 170.591 416.997 172.599 415.722 174.513C415.468 174.894 415.049 175.1 414.623 175.1Z" fill="#F3B6A7"/>
<path d="M337.152 190.408C336.898 190.408 336.641 190.335 336.414 190.182C335.48 189.55 334.56 188.887 333.679 188.213C333.102 187.771 332.991 186.943 333.434 186.365C333.878 185.79 334.705 185.68 335.284 186.121C336.123 186.764 337.001 187.396 337.893 187.999C338.496 188.407 338.654 189.227 338.246 189.829C337.99 190.205 337.575 190.408 337.152 190.408Z" fill="#F3B6A7"/>
</g>
<path d="M338.248 173.388C338.428 173.608 338.728 173.69 338.996 173.592L346.622 170.79C349.629 173.103 353.026 174.955 356.719 176.223L358.579 184.122C358.644 184.399 358.878 184.604 359.162 184.633L368.859 185.615C369.142 185.643 369.413 185.489 369.532 185.231L372.94 177.865C376.812 177.362 380.512 176.23 383.922 174.565L390.831 178.839C391.073 178.989 391.384 178.969 391.605 178.789L399.156 172.631C399.377 172.451 399.459 172.151 399.361 171.884L396.556 164.263C398.872 161.259 400.724 157.864 401.994 154.173L409.898 152.315C410.176 152.249 410.381 152.016 410.41 151.733L411.392 142.042C411.421 141.759 411.266 141.489 411.008 141.37L403.637 137.965C403.134 134.095 402 130.398 400.334 126.99L404.611 120.086C404.761 119.844 404.741 119.534 404.561 119.313L398.399 111.767C398.219 111.547 397.918 111.465 397.651 111.563L390.024 114.366C387.018 112.052 383.621 110.2 379.928 108.932L378.067 101.033C378.002 100.756 377.768 100.551 377.485 100.522L367.788 99.5407C367.504 99.5119 367.234 99.666 367.114 99.9244L363.707 107.29C359.834 107.793 356.134 108.926 352.725 110.59L345.816 106.316C345.573 106.166 345.263 106.187 345.042 106.366L337.491 112.524C337.27 112.704 337.188 113.004 337.286 113.271L340.091 120.892C337.775 123.896 335.922 127.291 334.653 130.982L326.748 132.841C326.471 132.906 326.266 133.14 326.237 133.423L325.255 143.113C325.226 143.396 325.381 143.666 325.639 143.786L333.01 147.191C333.513 151.061 334.647 154.758 336.312 158.165L332.035 165.069C331.885 165.311 331.906 165.621 332.086 165.842L338.248 173.388Z" fill="#FBBDB0"/>
<path d="M368.303 152.545C366.176 152.545 364.113 151.867 362.375 150.576C360.236 148.988 358.845 146.663 358.457 144.03C357.655 138.595 361.428 133.52 366.869 132.717C372.318 131.925 377.388 135.688 378.19 141.124C378.579 143.758 377.918 146.385 376.329 148.521C374.74 150.658 372.413 152.049 369.777 152.436C369.284 152.509 368.791 152.545 368.303 152.545ZM368.328 135.246C367.973 135.246 367.614 135.271 367.253 135.324C363.252 135.915 360.476 139.647 361.066 143.646C361.352 145.583 362.375 147.294 363.947 148.461C365.521 149.629 367.454 150.113 369.393 149.83C371.332 149.544 373.044 148.521 374.212 146.95C375.381 145.378 375.867 143.446 375.581 141.508C375.045 137.87 371.904 135.246 368.328 135.246Z" fill="#FFE1DF"/>
<path d="M368.492 167.254C367.657 167.254 366.817 167.211 365.97 167.126C364.287 166.957 362.621 166.616 361.012 166.111C360.94 166.088 360.867 166.065 360.795 166.042C360.238 165.861 359.883 165.345 359.883 164.79C359.883 164.655 359.904 164.517 359.947 164.382C360.172 163.69 360.916 163.314 361.608 163.535C363.105 164.02 364.662 164.346 366.234 164.504H366.235C366.321 164.513 366.408 164.521 366.493 164.529C370.218 164.869 373.886 164.27 377.232 162.829C379.048 162.047 380.769 161.015 382.353 159.747C382.365 159.737 382.378 159.727 382.391 159.717C382.431 159.684 382.47 159.654 382.508 159.621C387.102 155.875 389.962 150.565 390.56 144.669C390.638 143.906 390.675 143.146 390.675 142.389C390.675 137.299 388.936 132.405 385.672 128.407C381.923 123.817 376.609 120.96 370.71 120.363C364.814 119.769 359.031 121.501 354.436 125.246C349.842 128.993 346.983 134.303 346.385 140.198C346.309 140.948 346.271 141.7 346.271 142.449C346.272 145.696 346.983 148.906 348.366 151.848C348.451 152.029 348.492 152.219 348.491 152.407C348.491 152.901 348.211 153.376 347.733 153.6C347.073 153.908 346.289 153.627 345.979 152.967C344.432 149.676 343.636 146.084 343.634 142.451C343.634 141.612 343.676 140.772 343.761 139.933C344.43 133.337 347.629 127.396 352.769 123.204C357.909 119.014 364.372 117.068 370.975 117.741C377.576 118.409 383.521 121.605 387.715 126.743C391.367 131.214 393.312 136.689 393.312 142.384C393.312 143.23 393.27 144.081 393.183 144.934C391.888 157.704 381.07 167.254 368.492 167.254Z" fill="#FFE1DF"/>
<path d="M245.063 548.624H36.0616V257.97C36.0616 242.703 48.447 230.327 63.725 230.327H241.857C257.135 230.327 269.52 242.703 269.52 257.97V524.184C269.521 537.682 258.57 548.624 245.063 548.624Z" fill="#4C2425"/>
<path d="M234.55 548.624H1.09125V238.448C1.09125 233.963 4.73019 230.327 9.21882 230.327H226.423C230.911 230.327 234.55 233.963 234.55 238.448V548.624Z" fill="#653B3C"/>
<path d="M482.003 429.342C482.003 429.342 452.058 424.329 450.426 424.329H367.063C361.499 424.329 356.946 428.878 356.946 434.438V443.579C356.946 449.14 361.499 453.689 367.063 453.689H450.426C451.214 453.689 451.978 453.589 452.715 453.416C462.477 451.802 472.241 443.786 482.003 429.342Z" fill="url(#paint0_linear_23017_585)"/>
<path d="M481.682 430.575C595.303 160.769 384.812 160.536 411.029 415.864L481.682 430.575Z" fill="url(#paint1_linear_23017_585)"/>
<path d="M473.859 427.99C587.481 153.036 370.898 160.391 397.114 420.592L473.859 427.99Z" fill="url(#paint2_linear_23017_585)"/>
<path d="M418.535 446.186H409.683V541.845H418.535V446.186Z" fill="url(#paint3_linear_23017_585)"/>
<path d="M452.874 543.689H375.344V538.505C375.344 538.188 375.601 537.931 375.918 537.931H452.255C452.597 537.931 452.874 538.208 452.874 538.549V543.689H452.874Z" fill="url(#paint4_linear_23017_585)"/>
<path d="M367.174 528.699C367.174 528.699 341.897 546.906 346.286 559.138C346.286 559.138 373.943 547.214 377.284 537.821C380.625 528.428 376.719 524.28 376.719 524.28L367.174 528.699Z" fill="#504645"/>
<path d="M370.973 513.441L375.106 525.381C375.729 527.183 375.106 529.234 373.493 530.253C372.685 530.763 371.581 531.234 370.072 531.576C367.943 532.059 365.745 531.076 364.721 529.149L359.777 519.846L370.973 513.441Z" fill="url(#paint5_linear_23017_585)"/>
<path d="M411.195 405.97C411.195 405.97 359.277 414.962 337.006 435.521C314.735 456.079 357.447 521.658 357.447 521.658C357.447 521.658 364.445 521.615 372.926 514.352C372.926 514.352 347.601 465.03 369.426 450.647C393.964 434.477 422.242 430.835 422.242 430.835L411.697 407.556L411.195 405.97Z" fill="#6A4A40"/>
<path d="M350.678 552.372C356.238 549.8 371.978 538.792 374.631 538.306C377.284 537.821 381.886 540.936 381.886 540.936C381.886 540.936 383.005 542.948 381.808 546.457C378.114 550.924 369.911 559.439 358.883 562.612C350.772 564.946 345.098 562.77 341.564 560.224C343.508 557.265 346.976 554.085 350.678 552.372Z" fill="#423B3A"/>
<path d="M358.883 562.612C369.911 559.439 378.114 550.924 381.808 546.457C380.999 548.828 379.133 551.882 375.147 555.462C365.26 564.342 346.376 567.543 342.356 566.926C339.134 566.432 339.438 563.46 341.564 560.224C345.098 562.77 350.772 564.946 358.883 562.612Z" fill="#615351"/>
<path d="M386.6 533.165C386.538 534.696 383.407 539.945 381.578 542.89C380.708 544.29 379.185 545.145 377.536 545.149C376.491 545.152 375.289 545.061 374.197 544.748C372.558 544.278 371.639 542.534 372.118 540.899L375.693 528.699L386.6 533.165Z" fill="url(#paint6_linear_23017_585)"/>
<path d="M461.171 390.397C461.171 390.397 472.701 421.206 461.171 430.575C449.641 439.944 422.135 450.492 415.99 469.153C409.846 487.814 399.419 524.08 385.464 536.924C385.464 536.924 375.66 535.975 371.991 532.071C371.991 532.071 379.938 477.931 385.18 464.039C389.719 452.009 396.407 434.644 409.224 424.939C412.893 422.16 412.253 417.76 410.552 413.485L407.455 405.702L461.171 390.397Z" fill="#6A4A40"/>
<path d="M340.918 366.251C360.251 367.415 354.226 336.552 353.878 335.324L383.22 356.034C383.22 356.034 381.667 372.54 357.271 381.197C351.099 383.388 345.458 383.484 340.47 382.413C342.597 376.216 342.165 370.654 340.918 366.251Z" fill="#48201E"/>
<path d="M303.536 356.961C310.74 351.954 318.902 356.961 318.902 356.961C328.534 363.256 335.661 365.934 340.918 366.251C342.165 370.654 342.598 376.216 340.471 382.413C329.68 380.095 321.959 372.291 318.605 368.287C317.397 366.845 315.258 366.595 313.781 367.76C312.281 368.943 310.824 370.564 311.088 372.27C311.609 375.634 307.703 376.704 307.408 375.484C307.114 374.263 308.745 367.031 308.745 367.031C308.745 367.031 300.932 374.882 297.882 377.899C294.832 380.916 290.996 377.899 290.996 377.899C290.996 377.899 296.332 361.969 303.536 356.961Z" fill="url(#paint7_linear_23017_585)"/>
<path d="M431.064 287.66C431.064 287.66 402.938 276.407 350.595 319.589C350.595 319.589 346.223 328.633 350.992 336.682C355.762 344.731 401.208 383.952 407.454 405.702C407.454 405.702 434.529 414.493 462.53 393.646C462.53 393.646 460.058 333.113 431.064 287.66Z" fill="#48201E"/>
<path d="M375.462 277.618L389.308 294.39C390.682 296.056 390.985 298.372 390.035 300.311C388.113 304.228 383.553 309.931 373.44 309.143C370.432 308.908 367.768 307.094 366.454 304.38L356.772 284.381L375.462 277.618Z" fill="url(#paint8_linear_23017_585)"/>
<path d="M452.839 359.495C456.105 346.207 423.032 316.583 423.032 316.583L431.064 287.66C431.064 287.66 502.478 335.167 484.279 373.37C481.67 378.847 478.205 382.683 474.188 385.249C468.437 369.781 459.273 362.687 452.839 359.495Z" fill="#48201E"/>
<path d="M452.863 357.56C453.214 357.56 453.533 357.323 453.621 356.966C456.96 343.38 424.941 314.51 423.576 313.287C423.256 313 422.762 313.025 422.472 313.347C422.184 313.668 422.212 314.162 422.532 314.45C422.86 314.742 455.22 343.911 452.103 356.594C452 357.013 452.257 357.435 452.676 357.538C452.738 357.553 452.801 357.56 452.863 357.56Z" fill="#582826"/>
<path d="M402.747 358.351C402.747 358.351 441.959 373.564 451.53 362.122C452.179 361.345 452.602 360.462 452.84 359.495C459.273 362.687 468.437 369.781 474.188 385.249C453.565 398.417 418.314 377.923 408.783 371.881C407.215 370.887 405.334 370.539 403.516 370.915C399.839 371.677 393.489 372.797 390.064 372.27C385.053 371.499 377.855 389.161 369.734 383.713C369.734 383.713 376.689 353.012 402.747 358.351Z" fill="url(#paint9_linear_23017_585)"/>
<path d="M345.335 252.981C345.196 253.52 348.581 290.185 348.581 290.185L369.49 287.809L371.449 252.582C371.449 252.582 347.667 243.954 345.335 252.981Z" fill="url(#paint10_linear_23017_585)"/>
<path d="M366.003 259.882L366.425 278.507C366.43 278.746 366.405 278.978 366.345 279.21C365.981 280.626 364.372 285.407 359.577 283.464C355.226 281.7 351.229 280.156 348.29 280.713C346.97 280.963 346.058 282.171 346.181 283.508C346.49 286.839 347.324 294.333 349.042 300.733C349.391 302.032 350.684 302.835 352.009 302.602C356.003 301.899 364.383 300.181 370.801 297.221C371.671 296.82 372.254 295.987 372.319 295.032C372.632 290.376 373.637 276.229 374.527 272.33C375.363 268.671 380.159 266.949 382.224 266.37C382.901 266.18 383.465 265.725 383.796 265.105C384.963 262.912 386.809 257.743 380.355 254.834C379.004 254.226 378.432 252.635 379.082 251.305C380.376 248.656 381.256 244.493 376.333 241.606C371.329 238.672 367.09 241.045 364.718 243.09C363.759 243.917 362.366 243.907 361.376 243.118C360.811 242.668 360.044 242.457 359.036 242.941C357.678 243.593 356.054 242.869 355.546 241.452C354.569 238.729 352.305 235.678 347.056 235.995C337.741 236.556 335.594 246.567 337.354 252.764C339.114 258.961 349.178 257.778 354.431 255.327C358.425 253.464 363.019 256.379 364.993 257.885C365.617 258.361 365.985 259.097 366.003 259.882Z" fill="#704A4A"/>
<path d="M374.613 279.113C374.613 279.113 372.01 268.183 376.154 266.031C380.298 263.879 385.871 265.843 383.775 273.324C381.168 282.63 374.613 279.113 374.613 279.113Z" fill="url(#paint11_linear_23017_585)"/>
<path d="M382.659 388.351C382.596 388.354 382.533 388.355 382.469 388.355L300.198 388.265C298.165 388.263 296.518 386.614 296.52 384.582C296.522 382.549 298.178 380.869 300.207 380.906L382.478 380.995C384.512 380.997 386.158 382.646 386.156 384.679C386.154 386.648 384.604 388.254 382.659 388.351Z" fill="#703F3D"/>
<path d="M226.24 313.708H294.756C299.811 313.708 304.411 316.622 306.567 321.191L338.242 388.307H253.095C249.838 388.307 246.911 386.318 245.714 383.291L221.152 321.185C219.732 317.597 222.379 313.708 226.24 313.708Z" fill="url(#paint12_linear_23017_585)"/>
<path d="M274.51 348.12C275.995 352.73 274.898 357.206 272.061 358.119C269.223 359.032 265.719 356.035 264.234 351.426C262.749 346.816 263.846 342.339 266.684 341.426C269.522 340.514 273.026 343.51 274.51 348.12Z" fill="#EAA493"/>
<path d="M237.348 564.679C236.892 564.679 236.429 564.59 235.984 564.405C234.23 563.675 233.419 561.708 234.174 560.011L306.681 396.947C307.435 395.251 309.467 394.467 311.223 395.196C312.977 395.926 313.787 397.893 313.033 399.59L240.526 562.655C239.963 563.92 238.688 564.679 237.348 564.679Z" fill="#CFA99D"/>
<path d="M319.03 564.679C317.69 564.679 316.415 563.921 315.853 562.655L243.346 399.59C242.591 397.893 243.402 395.926 245.155 395.196C246.908 394.466 248.942 395.249 249.698 396.947L322.205 560.012C322.959 561.708 322.149 563.676 320.395 564.405C319.95 564.59 319.486 564.679 319.03 564.679Z" fill="#CFA99D"/>
<path d="M461.788 564.679C461.333 564.679 460.87 564.59 460.424 564.405C458.67 563.675 457.86 561.708 458.614 560.011L531.121 396.947C531.876 395.25 533.907 394.467 535.663 395.196C537.417 395.926 538.228 397.893 537.473 399.59L464.966 562.655C464.403 563.92 463.128 564.679 461.788 564.679Z" fill="#CFA99D"/>
<path d="M543.47 564.679C542.13 564.679 540.855 563.921 540.292 562.655L467.785 399.59C467.031 397.893 467.841 395.926 469.595 395.196C471.348 394.466 473.382 395.249 474.137 396.947L546.644 560.012C547.398 561.708 546.588 563.676 544.834 564.405C544.389 564.59 543.926 564.679 543.47 564.679Z" fill="#CFA99D"/>
<path d="M551.975 391.912C552.159 390.843 551.908 389.736 551.288 388.896C550.668 388.056 549.746 387.569 548.772 387.569H218.918C217.637 387.569 216.445 388.299 215.755 389.506C215.065 390.713 214.973 392.23 215.51 393.531L219.084 402.186C219.903 404.168 221.676 405.437 223.628 405.437H546.508C548.324 405.437 549.884 403.997 550.229 402.002L551.975 391.912Z" fill="#FBD0BD"/>
<path d="M122.792 377.174C122.792 377.174 157.759 315.862 146.911 306.73C136.064 297.598 135.87 324.122 131.48 320.365C127.09 316.608 134.25 294.459 132.299 279.07C130.349 263.68 126.113 243.091 120.643 263.781C115.172 284.47 115.856 304.868 113.486 294.328C111.116 283.788 102.945 228.847 92.4358 245.241C81.9265 261.636 79.7213 282.979 90.3146 295.414C100.908 307.849 115.129 321.735 97.6448 312.568C80.1608 303.402 68.2437 307.491 86.9451 324.098C86.9451 324.098 115.067 347.354 102.858 346.264C90.6496 345.174 71.2125 358.051 91.2437 367.355C91.2437 367.355 119.701 371.486 122.792 377.174Z" fill="#9B7A7A"/>
<path d="M108.264 433.09C108.264 433.09 40.1111 429.859 43.1272 414.09C46.1433 398.321 68.3871 408.88 78.2846 409.881C88.1823 410.882 82.3751 404.121 62.2144 389.939C42.0537 375.757 30.9702 354.986 52.3174 364.671C73.6645 374.357 82.196 392.544 80.7506 379.716C79.305 366.887 51.865 330.772 75.0741 345.56C98.2835 360.347 96.6961 374.032 97.3962 384.828C98.0963 395.624 101.188 363.934 108.445 368.655C115.701 373.376 111.582 378.226 108.984 390.775C106.386 403.324 113.659 393.208 116.062 389.089C118.466 384.97 124.371 394.849 118.586 408.48C112.801 422.11 108.264 433.09 108.264 433.09Z" fill="#975D5D"/>
<path d="M121.838 504.882C121.792 504.921 121.762 504.97 121.75 505.019C121.744 505.022 121.742 505.115 121.746 505.044L121.755 504.85L121.793 504.076L121.857 502.494L121.963 499.297L122.127 492.877L122.35 480.02C122.459 471.445 122.497 462.867 122.47 454.289C122.42 437.134 122.109 419.979 121.455 402.842C121.115 394.274 120.681 385.712 120.142 377.158C119.574 368.608 118.884 360.068 118.01 351.551C117.13 343.037 116.02 334.55 114.544 326.145C113.035 317.762 111.211 309.385 108.197 301.54L108.181 301.498C107.885 300.727 108.27 299.861 109.042 299.565C109.807 299.272 110.665 299.649 110.969 300.407C114.235 308.577 116.183 317.055 117.835 325.539C119.447 334.035 120.682 342.581 121.686 351.143C122.683 359.706 123.494 368.284 124.182 376.869C124.842 385.454 125.395 394.046 125.854 402.641C126.745 419.832 127.292 437.034 127.577 454.239C127.723 462.842 127.801 471.446 127.809 480.052L127.762 492.965L127.685 499.429L127.622 502.672L127.578 504.31L127.549 505.145L127.541 505.354C127.54 505.417 127.522 505.643 127.506 505.781C127.472 506.097 127.42 506.413 127.352 506.72C126.845 508.241 125.199 509.063 123.676 508.556C122.153 508.048 121.33 506.404 121.838 504.882Z" fill="#9B7A7A"/>
<path d="M121.461 508.187C121.436 508.264 121.424 508.346 121.427 508.425C121.426 508.446 121.441 508.545 121.435 508.499L121.417 508.378L121.347 507.892L121.195 506.893L120.874 504.867L120.2 500.798L118.79 492.658C117.827 487.232 116.824 481.811 115.784 476.398C113.707 465.571 111.482 454.772 109.068 444.02C106.639 433.273 104.027 422.568 101.005 411.996C99.49 406.712 97.8544 401.468 96.0189 396.312C94.1677 391.173 92.1405 386.067 89.4984 381.417L89.4771 381.38C89.0687 380.662 89.3208 379.749 90.0398 379.341C90.7492 378.938 91.6489 379.179 92.0649 379.876C94.9907 384.782 97.1541 389.95 99.1584 395.153C101.139 400.364 102.906 405.637 104.549 410.939C107.827 421.547 110.682 432.259 113.354 443.009C116.01 453.762 118.473 464.558 120.79 475.384C121.95 480.797 123.072 486.217 124.155 491.648L125.747 499.804L126.515 503.895L126.886 505.953L127.068 506.998L127.157 507.535L127.179 507.67L127.218 508.001C127.242 508.252 127.25 508.505 127.245 508.754C127.089 510.35 125.667 511.517 124.07 511.36C122.472 511.204 121.304 509.783 121.461 508.187Z" fill="#975D5D"/>
<path d="M136.071 389.553C136.071 389.553 205.162 378.55 198.571 363.909C191.979 349.269 172.79 364.692 163.395 367.958C153.999 371.225 152.65 369.596 168.972 351.13C185.294 332.665 186.817 313.506 168.298 327.872C149.779 342.238 156.189 355.562 154.619 342.748C153.05 329.934 177.804 281.009 158.657 300.77C139.509 320.53 137.169 337.35 138.993 348.014C140.816 358.678 130.457 328.567 124.494 334.84C118.53 341.113 123.662 344.877 129.1 356.483C134.538 368.088 125.117 359.933 121.823 356.483C118.53 353.032 115.077 364.01 123.866 375.93C132.654 387.849 136.071 389.553 136.071 389.553Z" fill="#975D5D"/>
<path d="M130.865 506.719C130.8 506.447 130.75 506.164 130.718 505.882C130.704 505.761 130.688 505.552 130.687 505.506L130.682 505.348L130.661 504.715L130.63 503.484L130.589 501.053L130.542 496.213L130.529 486.55C130.55 480.111 130.624 473.674 130.747 467.238C130.99 454.366 131.429 441.497 132.126 428.635C132.842 415.774 133.803 402.918 135.333 390.099C136.099 383.691 137.039 377.293 138.261 370.928C139.514 364.571 140.987 358.219 143.461 352.069C143.769 351.302 144.641 350.931 145.408 351.239C146.167 351.543 146.539 352.398 146.25 353.158L146.233 353.201C144.011 359.027 142.663 365.278 141.552 371.534C140.465 377.808 139.652 384.147 139.009 390.508C137.726 403.233 137.002 416.03 136.524 428.835C136.065 441.644 135.862 454.466 135.854 467.288C135.849 473.699 135.892 480.11 135.988 486.519L136.177 496.126L136.311 500.921L136.395 503.306L136.445 504.482L136.475 505.053L136.482 505.196C136.485 505.25 136.481 505.14 136.474 505.12C136.459 505.038 136.426 504.955 136.378 504.883C136.885 506.404 136.062 508.049 134.54 508.556C133.018 509.063 131.372 508.241 130.865 506.719Z" fill="#975D5D"/>
<path d="M97.7888 493.408H154.998C158.748 493.408 161.522 496.894 160.679 500.545C157.018 516.391 152.631 532.47 143.656 548.79C141.998 551.804 138.841 553.695 135.399 553.695H116.731C113.341 553.695 110.23 551.833 108.624 548.85C101.433 535.497 94.5144 519.579 91.0986 501.513C90.3036 497.309 93.5067 493.408 97.7888 493.408Z" fill="#975D5D"/>
<path d="M24.5105 58.4716C24.5105 58.4716 2.29543 70.769 0.457356 91.5815C-1.38052 112.394 0.304351 198.779 44.8514 220.04C89.3984 241.302 148.364 236.402 170.934 234.077C193.505 231.753 206.019 216.425 208.815 205.871C211.61 195.317 216.126 156.003 192.382 143.321C168.638 130.639 143.7 111.211 118.781 92.2927C93.8617 73.3747 51.156 42.4928 24.5105 58.4716Z" fill="#4B3630"/>
<path d="M185.38 150.496C185.38 150.496 179.384 150.813 178.649 163.14C178.649 163.14 192.552 175.594 211.333 178.558C212.743 178.781 209.362 168.941 208.853 167.608C206.435 161.266 198.818 157.181 185.38 150.496Z" fill="#423B3A"/>
<path d="M117.855 136.003H130.508C130.508 136.003 169.342 93.145 194.812 88.8212C194.812 88.8212 212.542 111.437 193.868 153.693C192.366 157.092 188.164 158.602 185.03 156.602C184.093 156.004 183.42 155.202 183.011 154.197L184.512 118.117C184.512 118.117 151.387 147.068 145.629 152.655C139.871 158.242 110.604 154.837 117.855 136.003Z" fill="#6A4A40"/>
<path d="M240.179 225.984C234.877 221.342 226.429 216.132 214.233 214.638L210.108 217.159C210.108 217.159 212.738 221.036 217.543 225.131C221.959 227.694 228.778 231.165 234.43 231.917C239.927 232.649 240.737 229.33 240.179 225.984Z" fill="#423B3A"/>
<path d="M208.853 167.608C205.587 168.664 204.15 173.289 195.862 170.231C187.843 167.272 181.882 163.457 178.815 161.256C178.746 161.853 178.689 162.475 178.649 163.14C178.649 163.14 193.309 177.073 212.089 180.037C213.499 180.26 214.616 178.853 214.108 177.521C213.196 175.129 211.552 171.502 208.853 167.608Z" fill="#615351"/>
<path d="M244.173 229.949C243.128 228.762 241.794 227.398 240.179 225.984C240.737 229.33 239.927 232.649 234.43 231.917C228.778 231.165 221.959 227.693 217.543 225.131C223.077 229.847 231.499 234.854 242.127 234.56C244.488 234.494 245.733 231.721 244.173 229.949Z" fill="#615351"/>
<path d="M118.318 145.151L177.569 145.792C177.569 145.792 211.406 173.766 217.543 216.424C217.543 216.424 218.562 219.561 212.446 220.097C212.446 220.097 191.988 206.746 178.649 183.14C162.293 154.197 129.891 167.226 129.891 167.226C119.244 159.555 104.2 157.993 92.8657 155.438L118.318 145.151Z" fill="#6A4A40"/>
<path d="M119.717 97.4556C119.717 97.4556 126.096 129.399 157.348 142.036L168.465 140.726L171.089 144.906L145.012 145.736C145.012 145.736 122.721 136.914 110.911 112.875C110.521 112.08 104.018 98.6619 119.717 97.4556Z" fill="url(#paint13_linear_23017_585)"/>
<path d="M123.135 144.629C123.135 144.629 115.882 124.926 114.323 105.782C114.323 105.782 119.629 101.225 122.946 99.2584C124.02 98.6217 124.426 97.275 123.883 96.1511C121.444 91.1032 106.697 71.2824 105.593 71.0069C99.5887 69.5095 74.9643 57.8098 57.6214 81.5148C50.1784 91.6882 59.0984 123.006 92.8655 155.438L99.8316 156.769L123.135 144.629Z" fill="url(#paint14_linear_23017_585)"/>
<path d="M95.186 110.099C95.186 110.099 115.338 133.943 141.103 137.429C141.103 137.429 147.762 131.363 152.713 133.529C157.665 135.694 164.454 145.254 164.454 145.254H131.372C131.372 145.254 100.091 144.153 84.4606 125.198C85.7184 118.565 89.4848 114.603 95.186 110.099Z" fill="url(#paint15_linear_23017_585)"/>
<path d="M83.4293 54.283L79.0199 68.9787C78.8178 69.6519 79.0674 70.381 79.6478 70.7783C81.7708 72.2312 87.3192 75.1206 94.9306 72.3126C95.801 71.9914 96.3976 71.1791 96.4732 70.2549L97.5185 57.4527L83.4293 54.283Z" fill="url(#paint16_linear_23017_585)"/>
<path d="M109.249 42.3816C109.249 42.3816 107.081 57.6151 101.225 62.3C95.3688 66.9847 83.9592 63.4573 80.1055 51.9731L87.7839 32.3372L109.249 42.3816Z" fill="url(#paint17_linear_23017_585)"/>
<path d="M86.9189 45.0436C87.3643 45.1871 87.8307 44.9018 87.9003 44.4393C88.1116 43.0331 88.6394 40.2501 89.7076 38.3545C89.7076 38.3545 89.1488 36.3558 94.7622 39.3751C100.376 42.3944 108.807 46.8295 113.771 44.1886C118.611 41.6137 123.513 28.6548 110.723 31.0557C110.236 31.1471 109.788 30.7596 109.825 30.2661C109.982 28.1363 109.771 23.2364 104.805 21.6637C100.158 20.1918 102.653 22.5774 101.605 23.8426C101.297 24.2149 101.994 22.5752 95.3915 23.5344C93.1262 23.8635 90.2193 17.8534 84.6544 20.3039C80.0707 22.3225 79.3577 25.1437 79.4335 26.9019C79.458 27.4715 78.8796 27.8576 78.3613 27.6189C76.9575 26.9728 74.6994 26.6373 72.5364 29.3454C69.5461 33.0894 73.8194 36.3361 75.1013 37.1872C75.3112 37.3266 75.4419 37.5577 75.4435 37.8098C75.4556 39.7568 75.759 48.25 80.0188 53.0407C80.3877 53.4556 81.0693 53.3339 81.2843 52.8224L84.5641 45.0133C84.7165 44.6507 85.121 44.4648 85.4958 44.5854L86.9189 45.0436Z" fill="#8B5656"/>
<path d="M86.9881 46.629C86.9881 46.629 84.9852 38.4772 81.9428 41.124C78.9004 43.7707 82.736 49.5959 86.2213 50.7064L86.9881 46.629Z" fill="url(#paint18_linear_23017_585)"/>
<path d="M162.788 147.104L177.642 97.6043C178.248 95.5849 180.043 94.1522 182.148 94.0083L202.202 92.6371C204.241 92.4977 205.757 94.4877 205.08 96.4141L188.475 143.686C187.94 145.209 186.572 146.285 184.965 146.447L165.217 148.639L162.788 147.104Z" fill="#EAA493"/>
<path d="M190.182 114.381C189.073 116.618 187.158 117.928 185.905 117.308C184.651 116.687 184.534 114.371 185.643 112.134C186.752 109.897 188.667 108.587 189.921 109.207C191.174 109.828 191.291 112.144 190.182 114.381Z" fill="#F9C6BA"/>
<path d="M165.216 148.639C165.184 148.639 165.152 148.638 165.12 148.636L123.04 146.511C122 146.459 121.199 145.573 121.252 144.534C121.304 143.494 122.194 142.677 123.23 142.747L165.31 144.872C166.35 144.924 167.151 145.81 167.098 146.849C167.048 147.856 166.214 148.639 165.216 148.639Z" fill="#CF9284"/>
<path d="M114.323 106.115C114.14 106.115 113.989 105.965 113.99 105.78C114.018 96.9961 110.626 85.3338 110.591 85.2168C110.539 85.0404 110.64 84.855 110.817 84.8028C110.997 84.7523 111.18 84.8518 111.232 85.0296C111.267 85.1471 114.687 96.9005 114.657 105.783C114.657 105.966 114.507 106.115 114.323 106.115Z" fill="url(#paint19_linear_23017_585)"/>
<path d="M95.1865 110.432C95.0882 110.432 94.9899 110.389 94.9241 110.306C94.8323 110.189 85.6278 98.4982 82.464 90.4858C82.3954 90.314 82.4809 90.1202 82.6513 90.053C82.8233 89.9851 83.0173 90.0685 83.0844 90.2403C86.2133 98.1617 95.3558 109.776 95.4489 109.892C95.5627 110.037 95.5382 110.247 95.3932 110.361C95.3325 110.409 95.2589 110.432 95.1865 110.432Z" fill="url(#paint20_linear_23017_585)"/>
<path d="M82.235 128.307L81.9867 128.201C68.672 122.505 60.4475 106.62 60.3661 106.46C60.282 106.295 60.348 106.094 60.5123 106.011C60.6725 105.928 60.8743 105.991 60.9608 106.156C61.041 106.313 69.056 121.791 82.0023 127.48L83.3742 125.544C83.4827 125.392 83.691 125.358 83.8396 125.464C83.9908 125.57 84.0258 125.778 83.9198 125.929L82.235 128.307Z" fill="url(#paint21_linear_23017_585)"/>
<defs>
<linearGradient id="paint0_linear_23017_585" x1="447.021" y1="380.902" x2="391.429" y2="481.328" gradientUnits="userSpaceOnUse">
<stop stop-color="#FF928E"/>
<stop offset="1" stop-color="#FE7062"/>
</linearGradient>
<linearGradient id="paint1_linear_23017_585" x1="287.85" y1="210.663" x2="460.893" y2="329.65" gradientUnits="userSpaceOnUse">
<stop stop-color="#E1473D"/>
<stop offset="1" stop-color="#E9605A"/>
</linearGradient>
<linearGradient id="paint2_linear_23017_585" x1="433.206" y1="437.047" x2="467.031" y2="231.9" gradientUnits="userSpaceOnUse">
<stop stop-color="#FF928E"/>
<stop offset="1" stop-color="#FE7062"/>
</linearGradient>
<linearGradient id="paint3_linear_23017_585" x1="407.199" y1="537.45" x2="426.304" y2="417.185" gradientUnits="userSpaceOnUse">
<stop stop-color="#FF928E"/>
<stop offset="1" stop-color="#FE7062"/>
</linearGradient>
<linearGradient id="paint4_linear_23017_585" x1="414.577" y1="538.13" x2="434.516" y2="412.617" gradientUnits="userSpaceOnUse">
<stop stop-color="#FF928E"/>
<stop offset="1" stop-color="#FE7062"/>
</linearGradient>
<linearGradient id="paint5_linear_23017_585" x1="375.344" y1="522.569" x2="359.777" y2="522.569" gradientUnits="userSpaceOnUse">
<stop stop-color="#FEBBBA"/>
<stop offset="1" stop-color="#FF928E"/>
</linearGradient>
<linearGradient id="paint6_linear_23017_585" x1="386.6" y1="536.924" x2="371.991" y2="536.924" gradientUnits="userSpaceOnUse">
<stop stop-color="#FEBBBA"/>
<stop offset="1" stop-color="#FF928E"/>
</linearGradient>
<linearGradient id="paint7_linear_23017_585" x1="341.96" y1="368.574" x2="290.996" y2="368.574" gradientUnits="userSpaceOnUse">
<stop stop-color="#FEBBBA"/>
<stop offset="1" stop-color="#FF928E"/>
</linearGradient>
<linearGradient id="paint8_linear_23017_585" x1="390.586" y1="293.417" x2="356.772" y2="293.417" gradientUnits="userSpaceOnUse">
<stop stop-color="#FEBBBA"/>
<stop offset="1" stop-color="#FF928E"/>
</linearGradient>
<linearGradient id="paint9_linear_23017_585" x1="413.644" y1="369.187" x2="542.959" y2="594.062" gradientUnits="userSpaceOnUse">
<stop stop-color="#FEBBBA"/>
<stop offset="1" stop-color="#FF928E"/>
</linearGradient>
<linearGradient id="paint10_linear_23017_585" x1="353.306" y1="255.289" x2="380.229" y2="319.968" gradientUnits="userSpaceOnUse">
<stop stop-color="#FEBBBA"/>
<stop offset="1" stop-color="#FF928E"/>
</linearGradient>
<linearGradient id="paint11_linear_23017_585" x1="402.186" y1="313.6" x2="378.076" y2="271.46" gradientUnits="userSpaceOnUse">
<stop stop-color="#FEBBBA"/>
<stop offset="1" stop-color="#FF928E"/>
</linearGradient>
<linearGradient id="paint12_linear_23017_585" x1="306.902" y1="323.717" x2="259.905" y2="373.426" gradientUnits="userSpaceOnUse">
<stop stop-color="#7F4341"/>
<stop offset="1" stop-color="#9A5C5A"/>
</linearGradient>
<linearGradient id="paint13_linear_23017_585" x1="153.848" y1="107.711" x2="125.959" y2="140.9" gradientUnits="userSpaceOnUse">
<stop stop-color="#FEBBBA"/>
<stop offset="1" stop-color="#FF928E"/>
</linearGradient>
<linearGradient id="paint14_linear_23017_585" x1="48.4101" y1="-48.1977" x2="93.0718" y2="108.604" gradientUnits="userSpaceOnUse">
<stop stop-color="#FF928E"/>
<stop offset="1" stop-color="#FE7062"/>
</linearGradient>
<linearGradient id="paint15_linear_23017_585" x1="121.3" y1="137.891" x2="177.04" y2="61.5802" gradientUnits="userSpaceOnUse">
<stop stop-color="#FEBBBA"/>
<stop offset="1" stop-color="#FF928E"/>
</linearGradient>
<linearGradient id="paint16_linear_23017_585" x1="87.1701" y1="74.6842" x2="89.2222" y2="56.2014" gradientUnits="userSpaceOnUse">
<stop stop-color="#FEBBBA"/>
<stop offset="1" stop-color="#FF928E"/>
</linearGradient>
<linearGradient id="paint17_linear_23017_585" x1="98.1314" y1="58.562" x2="89.0852" y2="28.704" gradientUnits="userSpaceOnUse">
<stop stop-color="#FEBBBA"/>
<stop offset="1" stop-color="#FF928E"/>
</linearGradient>
<linearGradient id="paint18_linear_23017_585" x1="88.749" y1="61.4047" x2="79.7028" y2="31.5465" gradientUnits="userSpaceOnUse">
<stop stop-color="#FEBBBA"/>
<stop offset="1" stop-color="#FF928E"/>
</linearGradient>
<linearGradient id="paint19_linear_23017_585" x1="110.577" y1="95.4524" x2="114.657" y2="95.4524" gradientUnits="userSpaceOnUse">
<stop stop-color="#E1473D"/>
<stop offset="1" stop-color="#E9605A"/>
</linearGradient>
<linearGradient id="paint20_linear_23017_585" x1="82.4401" y1="100.231" x2="95.5204" y2="100.231" gradientUnits="userSpaceOnUse">
<stop stop-color="#E1473D"/>
<stop offset="1" stop-color="#E9605A"/>
</linearGradient>
<linearGradient id="paint21_linear_23017_585" x1="60.3295" y1="117.141" x2="83.9809" y2="117.141" gradientUnits="userSpaceOnUse">
<stop stop-color="#E1473D"/>
<stop offset="1" stop-color="#E9605A"/>
</linearGradient>
</defs>
</svg>
